<svg id="svg" version="1.1" xmlns="http://www.w3.org/2000/svg" xmlns:xlink="http://www.w3.org/1999/xlink" width="400" height="400" viewBox="0, 0, 400,400"><g id="svgg"><path id="path0" d="M97.323 84.004 C 96.841 84.198,96.188 84.772,95.873 85.278 C 95.557 85.785,94.245 87.820,92.958 89.800 C 90.237 93.984,89.802 94.682,89.152 95.900 C 88.888 96.395,88.520 96.800,88.336 96.800 C 88.151 96.800,88.000 97.057,88.000 97.371 C 88.000 97.686,87.763 98.181,87.474 98.471 C 87.184 98.762,86.457 99.810,85.857 100.800 C 85.257 101.790,84.548 102.959,84.283 103.398 C 84.017 103.838,83.305 104.853,82.700 105.656 C 82.095 106.459,81.600 107.232,81.600 107.374 C 81.600 107.516,81.261 108.120,80.847 108.716 C 79.561 110.566,75.416 116.968,75.095 117.600 C 74.928 117.930,74.446 118.740,74.025 119.400 C 73.603 120.060,73.245 120.734,73.229 120.899 C 73.213 121.063,99.255 121.243,131.100 121.299 L 189.000 121.400 188.862 122.378 C 188.786 122.916,187.976 124.455,187.062 125.799 C 184.749 129.199,184.451 129.677,184.009 130.700 C 183.795 131.195,183.456 131.600,183.257 131.600 C 183.057 131.600,182.788 131.915,182.658 132.300 C 182.529 132.685,182.193 133.350,181.912 133.777 C 181.630 134.204,180.635 135.700,179.700 137.102 C 178.765 138.504,178.000 139.797,178.000 139.976 C 178.000 140.155,177.711 140.542,177.358 140.835 C 177.005 141.127,176.548 141.735,176.341 142.184 C 175.844 143.265,175.323 144.111,173.297 147.128 C 172.364 148.519,171.600 149.741,171.600 149.844 C 171.600 150.030,169.988 152.412,169.600 152.800 C 169.490 152.910,169.181 153.360,168.913 153.800 C 168.645 154.240,167.875 155.500,167.200 156.600 C 166.525 157.700,165.755 158.959,165.487 159.398 C 165.219 159.838,164.535 160.828,163.966 161.598 C 163.398 162.369,162.806 163.270,162.651 163.600 C 162.124 164.721,159.978 168.069,159.575 168.400 C 159.440 168.510,158.806 169.467,158.165 170.526 C 157.524 171.585,156.816 172.755,156.592 173.126 C 156.367 173.497,155.152 175.366,153.892 177.279 C 152.631 179.192,151.600 180.874,151.600 181.016 C 151.600 181.158,151.285 181.686,150.900 182.191 C 149.148 184.485,145.200 190.693,145.200 191.153 C 145.200 191.362,145.061 191.593,144.892 191.667 C 144.592 191.796,142.662 194.668,140.838 197.700 C 140.341 198.525,139.769 199.200,139.567 199.200 C 139.365 199.200,139.198 199.425,139.195 199.700 C 139.192 199.975,138.337 201.493,137.295 203.074 C 136.253 204.655,134.410 207.504,133.200 209.404 C 131.990 211.304,130.687 213.341,130.304 213.930 C 129.922 214.518,129.398 215.405,129.140 215.900 C 128.882 216.395,128.520 216.800,128.336 216.800 C 128.151 216.800,128.000 217.057,128.000 217.371 C 128.000 217.686,127.763 218.181,127.474 218.471 C 127.184 218.762,126.457 219.810,125.857 220.800 C 125.257 221.790,124.548 222.959,124.283 223.398 C 124.017 223.838,123.305 224.853,122.700 225.656 C 122.095 226.459,121.600 227.232,121.600 227.374 C 121.600 227.516,121.261 228.120,120.847 228.716 C 118.800 231.661,114.611 238.217,114.149 239.200 C 113.994 239.530,113.357 240.456,112.734 241.258 C 112.110 242.059,111.600 242.826,111.600 242.962 C 111.600 243.097,110.970 244.105,110.200 245.200 C 109.430 246.295,108.800 247.374,108.800 247.596 C 108.800 247.818,108.620 248.000,108.400 248.000 C 108.180 248.000,108.000 248.257,108.000 248.571 C 108.000 248.886,107.775 249.386,107.500 249.682 C 106.818 250.417,105.200 252.723,105.200 252.959 C 105.200 253.064,104.390 254.333,103.400 255.779 C 102.410 257.225,101.600 258.503,101.600 258.620 C 101.600 258.943,99.842 261.381,99.500 261.533 C 99.335 261.607,99.200 261.885,99.200 262.152 C 99.200 262.419,98.924 262.989,98.587 263.419 C 97.450 264.870,95.200 268.467,95.200 268.835 C 95.200 269.036,95.042 269.200,94.849 269.200 C 94.655 269.200,94.273 269.740,94.000 270.400 C 93.727 271.060,93.366 271.600,93.198 271.600 C 93.030 271.600,92.788 271.915,92.658 272.300 C 92.408 273.044,91.837 273.993,90.700 275.549 C 90.315 276.077,90.000 276.829,90.000 277.221 C 90.000 277.613,89.775 278.024,89.500 278.135 C 89.225 278.246,98.936 278.351,111.081 278.368 L 133.161 278.400 134.581 276.939 C 135.361 276.135,136.000 275.318,136.000 275.122 C 136.000 274.775,137.559 272.396,138.046 272.000 C 138.181 271.890,138.419 271.395,138.573 270.900 C 138.728 270.405,139.022 270.000,139.227 270.000 C 139.432 270.000,139.600 269.818,139.600 269.596 C 139.600 269.374,140.230 268.295,141.000 267.200 C 141.770 266.105,142.400 265.097,142.400 264.962 C 142.400 264.826,142.916 264.059,143.547 263.258 C 144.177 262.456,144.819 261.395,144.974 260.900 C 145.128 260.405,145.422 260.000,145.627 260.000 C 145.832 260.000,146.000 259.724,146.000 259.387 C 146.000 259.051,146.270 258.671,146.600 258.545 C 146.930 258.418,147.200 258.091,147.200 257.817 C 147.200 257.544,147.707 256.618,148.326 255.760 C 148.946 254.902,150.226 252.895,151.172 251.300 C 152.117 249.705,153.051 248.400,153.246 248.400 C 153.441 248.400,153.600 248.157,153.600 247.860 C 153.600 247.563,154.140 246.575,154.800 245.663 C 155.460 244.752,156.000 243.896,156.000 243.761 C 156.000 243.626,156.540 242.833,157.200 242.000 C 157.860 241.167,158.400 240.368,158.400 240.226 C 158.400 240.084,158.739 239.480,159.153 238.884 C 160.831 236.468,164.800 230.335,164.800 230.158 C 164.800 229.971,166.410 227.590,166.800 227.200 C 167.092 226.908,167.962 225.495,168.278 224.800 C 168.428 224.470,169.147 223.347,169.875 222.304 C 170.604 221.261,171.200 220.226,171.200 220.004 C 171.200 219.782,171.380 219.600,171.600 219.600 C 171.820 219.600,172.000 219.389,172.000 219.131 C 172.000 218.874,172.299 218.333,172.664 217.929 C 173.030 217.525,173.525 216.844,173.764 216.416 C 174.276 215.502,177.491 210.359,178.496 208.847 C 178.878 208.271,179.402 207.395,179.660 206.900 C 179.918 206.405,180.280 206.000,180.464 206.000 C 180.649 206.000,180.800 205.829,180.800 205.620 C 180.800 205.411,181.309 204.466,181.932 203.520 C 182.554 202.574,183.805 200.630,184.711 199.200 C 185.617 197.770,186.503 196.410,186.679 196.178 C 187.220 195.468,187.990 194.231,188.279 193.612 C 188.430 193.289,189.689 191.349,191.077 189.302 C 192.464 187.255,193.600 185.496,193.600 185.394 C 193.600 185.292,194.410 184.025,195.400 182.579 C 196.390 181.133,197.200 179.887,197.200 179.810 C 197.200 179.686,199.296 176.409,200.404 174.800 C 200.817 174.200,204.346 168.717,207.227 164.200 C 208.069 162.880,208.948 161.583,209.179 161.317 C 209.411 161.051,209.600 160.729,209.600 160.601 C 209.600 160.472,209.939 159.880,210.353 159.284 C 212.031 156.868,216.000 150.735,216.000 150.558 C 216.000 150.371,217.610 147.990,218.000 147.600 C 218.110 147.490,218.416 147.040,218.679 146.600 C 221.754 141.467,222.682 139.996,223.596 138.800 C 224.185 138.030,224.789 137.130,224.938 136.800 C 225.087 136.470,225.565 135.660,226.000 135.000 C 226.435 134.340,227.002 133.395,227.260 132.900 C 227.518 132.405,227.880 132.000,228.064 132.000 C 228.249 132.000,228.400 131.758,228.400 131.461 C 228.400 130.987,228.766 130.445,230.393 128.517 C 230.617 128.251,230.800 127.915,230.800 127.771 C 230.800 127.626,231.655 126.227,232.700 124.661 C 234.933 121.316,235.425 120.510,235.973 119.300 C 236.197 118.805,236.545 118.400,236.747 118.400 C 236.948 118.400,237.226 117.950,237.364 117.400 C 237.502 116.850,237.792 116.400,238.008 116.400 C 238.223 116.400,238.400 116.222,238.400 116.004 C 238.400 115.786,239.165 114.481,240.101 113.104 C 241.037 111.727,242.023 110.105,242.292 109.500 C 242.562 108.895,242.946 108.400,243.145 108.400 C 243.344 108.400,243.612 108.085,243.742 107.700 C 243.871 107.315,244.207 106.650,244.488 106.223 C 244.770 105.796,245.765 104.300,246.700 102.898 C 247.635 101.496,248.400 100.264,248.400 100.159 C 248.400 100.054,248.742 99.480,249.159 98.884 C 251.070 96.156,255.197 89.697,256.048 88.100 C 256.312 87.605,256.680 87.200,256.864 87.200 C 257.049 87.200,257.200 86.952,257.200 86.649 C 257.200 86.346,257.470 85.874,257.800 85.600 C 258.130 85.326,258.400 84.764,258.400 84.351 C 258.400 83.527,99.358 83.184,97.323 84.004 M265.900 122.432 C 265.515 122.656,265.200 123.009,265.200 123.216 C 265.200 123.423,264.390 124.775,263.400 126.221 C 262.410 127.667,261.600 128.948,261.600 129.068 C 261.600 129.187,261.084 129.941,260.453 130.742 C 259.823 131.544,259.181 132.605,259.026 133.100 C 258.872 133.595,258.578 134.000,258.373 134.000 C 258.168 134.000,258.000 134.170,258.000 134.377 C 258.000 134.584,256.859 136.448,255.465 138.518 C 254.071 140.589,252.804 142.534,252.650 142.841 C 252.057 144.020,249.955 147.283,249.585 147.600 C 249.456 147.710,248.666 148.938,247.829 150.329 C 246.250 152.953,243.836 156.704,243.280 157.400 C 243.104 157.620,242.839 158.115,242.692 158.500 C 242.545 158.885,242.239 159.200,242.013 159.200 C 241.786 159.200,241.600 159.489,241.600 159.842 C 241.600 160.196,241.091 161.141,240.470 161.942 C 239.848 162.744,238.641 164.570,237.789 166.000 C 236.936 167.430,235.465 169.736,234.519 171.125 C 233.574 172.514,232.800 173.736,232.800 173.841 C 232.800 174.148,231.029 176.587,230.700 176.733 C 230.535 176.807,230.400 177.085,230.400 177.352 C 230.400 177.619,230.123 178.189,229.784 178.619 C 229.213 179.344,226.942 182.810,223.618 188.030 C 222.858 189.223,222.093 190.260,221.918 190.333 C 221.743 190.407,221.598 190.677,221.595 190.933 C 221.590 191.330,218.307 196.578,217.299 197.800 C 217.118 198.020,216.265 199.370,215.404 200.800 C 214.543 202.230,213.065 204.536,212.119 205.925 C 211.174 207.314,210.400 208.536,210.400 208.641 C 210.400 208.948,208.629 211.387,208.300 211.533 C 208.135 211.607,208.000 211.861,208.000 212.098 C 208.000 212.335,207.100 213.855,206.000 215.476 C 204.900 217.097,204.000 218.516,204.000 218.628 C 204.000 218.826,202.406 221.194,202.000 221.600 C 201.890 221.710,201.445 222.496,201.012 223.346 C 200.579 224.197,199.994 224.981,199.712 225.089 C 199.430 225.197,199.200 225.498,199.200 225.757 C 199.200 226.016,198.300 227.530,197.200 229.122 C 196.100 230.713,195.200 232.101,195.200 232.204 C 195.200 232.308,194.390 233.575,193.400 235.021 C 192.410 236.467,191.600 237.727,191.600 237.821 C 191.600 237.915,190.790 239.175,189.800 240.621 C 188.810 242.067,188.000 243.406,188.000 243.597 C 188.000 243.787,187.773 244.181,187.495 244.471 C 187.022 244.966,186.071 246.338,184.911 248.200 C 184.637 248.640,184.299 249.315,184.160 249.700 C 184.021 250.085,183.777 250.400,183.618 250.400 C 183.459 250.400,183.118 250.805,182.860 251.300 C 182.602 251.795,182.035 252.740,181.600 253.400 C 181.165 254.060,180.598 255.005,180.340 255.500 C 180.082 255.995,179.720 256.400,179.536 256.400 C 179.351 256.400,179.200 256.609,179.200 256.864 C 179.200 257.120,178.300 258.655,177.200 260.276 C 176.100 261.897,175.200 263.328,175.200 263.454 C 175.200 263.581,174.660 264.367,174.000 265.200 C 173.340 266.033,172.800 266.822,172.800 266.954 C 172.800 267.085,171.990 268.375,171.000 269.821 C 170.010 271.267,169.200 272.536,169.200 272.641 C 169.200 272.746,168.858 273.320,168.440 273.916 C 167.332 275.498,163.025 282.143,162.856 282.532 C 162.727 282.829,160.654 286.056,159.600 287.600 C 158.394 289.367,156.400 292.488,156.400 292.610 C 156.400 292.687,155.625 293.886,154.677 295.275 C 153.729 296.664,152.835 298.115,152.689 298.500 C 152.544 298.885,152.239 299.200,152.013 299.200 C 151.786 299.200,151.600 299.443,151.600 299.740 C 151.600 300.037,151.096 300.982,150.480 301.840 C 149.865 302.698,148.661 304.570,147.806 306.000 C 146.950 307.430,146.014 308.744,145.725 308.920 C 145.436 309.096,145.200 309.420,145.200 309.641 C 145.200 309.862,144.382 311.296,143.381 312.829 C 142.381 314.361,141.671 315.792,141.805 316.008 C 141.962 316.262,170.309 316.400,222.407 316.400 L 302.768 316.400 303.784 315.304 C 304.343 314.701,304.800 314.087,304.800 313.939 C 304.800 313.648,307.296 309.707,307.981 308.917 C 308.212 308.651,308.400 308.351,308.400 308.250 C 308.400 308.150,309.274 306.747,310.341 305.134 C 314.026 299.566,316.000 296.442,316.000 296.179 C 316.000 296.034,316.540 295.233,317.200 294.400 C 317.860 293.567,318.400 292.768,318.400 292.626 C 318.400 292.270,320.130 289.831,320.500 289.667 C 320.665 289.593,320.800 289.361,320.800 289.150 C 320.800 288.940,321.139 288.280,321.553 287.684 C 324.363 283.638,327.089 279.223,326.896 279.029 C 326.770 278.903,300.687 278.800,268.933 278.800 L 211.200 278.800 211.200 277.979 C 211.200 277.527,212.235 275.592,213.500 273.679 C 214.765 271.766,215.871 270.020,215.958 269.800 C 216.045 269.580,216.606 268.770,217.205 268.000 C 217.803 267.230,218.419 266.195,218.574 265.700 C 218.728 265.205,219.022 264.800,219.227 264.800 C 219.432 264.800,219.600 264.629,219.600 264.420 C 219.600 264.211,220.109 263.266,220.730 262.320 C 221.352 261.374,222.611 259.430,223.529 258.000 C 224.446 256.570,225.377 255.183,225.598 254.917 C 225.819 254.651,226.000 254.329,226.000 254.201 C 226.000 253.982,227.563 251.637,228.000 251.200 C 228.110 251.090,228.419 250.640,228.687 250.200 C 228.955 249.760,229.725 248.500,230.400 247.400 C 231.075 246.300,231.845 245.041,232.113 244.602 C 232.381 244.162,233.095 243.147,233.700 242.344 C 234.305 241.541,234.800 240.756,234.800 240.598 C 234.800 240.441,235.610 239.153,236.600 237.737 C 237.590 236.320,238.400 235.027,238.400 234.862 C 238.400 234.697,238.675 234.211,239.012 233.781 C 239.348 233.352,240.736 231.290,242.095 229.200 C 245.182 224.454,245.151 224.504,246.600 222.041 C 247.260 220.919,247.935 220.001,248.100 220.000 C 248.265 220.000,248.400 219.739,248.400 219.420 C 248.400 219.101,248.629 218.696,248.908 218.520 C 249.188 218.344,249.643 217.750,249.919 217.200 C 250.195 216.650,251.316 214.850,252.410 213.200 C 253.504 211.550,254.575 209.795,254.790 209.300 C 255.005 208.805,255.365 208.400,255.590 208.400 C 255.816 208.400,256.000 208.157,256.000 207.860 C 256.000 207.563,256.540 206.575,257.200 205.663 C 257.860 204.752,258.400 203.908,258.400 203.787 C 258.400 203.529,259.979 201.260,260.700 200.482 C 260.975 200.186,261.200 199.787,261.200 199.597 C 261.200 199.406,262.010 198.067,263.000 196.621 C 263.990 195.175,264.800 193.885,264.800 193.754 C 264.800 193.622,265.340 192.833,266.000 192.000 C 266.660 191.167,267.200 190.368,267.200 190.226 C 267.200 189.870,268.930 187.431,269.300 187.267 C 269.465 187.193,269.600 186.948,269.600 186.720 C 269.600 186.493,270.455 185.027,271.500 183.461 C 273.536 180.411,274.200 179.348,274.660 178.400 C 275.174 177.340,277.716 173.805,278.064 173.667 C 278.249 173.593,278.400 173.210,278.400 172.816 C 278.400 172.421,278.672 171.872,279.005 171.595 C 279.339 171.319,280.547 169.542,281.692 167.646 C 282.837 165.751,284.544 163.073,285.487 161.696 C 286.429 160.319,287.200 159.097,287.200 158.980 C 287.200 158.657,288.958 156.219,289.300 156.067 C 289.465 155.993,289.600 155.715,289.600 155.448 C 289.600 155.181,289.876 154.611,290.213 154.181 C 291.350 152.730,293.600 149.133,293.600 148.765 C 293.600 148.564,293.751 148.400,293.936 148.400 C 294.120 148.400,294.482 147.995,294.740 147.500 C 294.998 147.005,295.565 146.060,296.000 145.400 C 296.435 144.740,297.002 143.795,297.260 143.300 C 297.518 142.805,297.880 142.400,298.064 142.400 C 298.249 142.400,298.400 142.204,298.400 141.965 C 298.400 141.726,299.299 140.151,300.398 138.465 C 301.498 136.779,302.571 135.130,302.785 134.800 C 302.998 134.470,304.349 132.422,305.786 130.248 C 307.224 128.074,308.400 126.167,308.400 126.009 C 308.400 125.851,308.760 125.307,309.200 124.800 C 309.640 124.293,310.000 123.455,310.000 122.939 L 310.000 122.000 288.300 122.012 C 274.307 122.020,266.351 122.169,265.900 122.432 " stroke="none" fill="#fafbfc" fill-rule="evenodd"></path><path id="path1" d="M92.894 89.100 C 88.673 95.510,88.174 96.297,87.749 97.200 C 87.594 97.530,86.957 98.456,86.334 99.258 C 85.710 100.059,85.200 100.901,85.200 101.129 C 85.200 101.357,84.975 101.786,84.700 102.082 C 83.923 102.921,82.581 104.897,82.039 106.000 C 81.664 106.765,81.834 106.672,82.764 105.600 C 83.432 104.830,83.983 104.081,83.989 103.935 C 84.001 103.640,86.431 99.838,87.387 98.619 C 87.724 98.189,88.000 97.604,88.000 97.319 C 88.000 97.033,88.151 96.800,88.336 96.800 C 88.520 96.800,88.882 96.395,89.140 95.900 C 89.398 95.405,89.922 94.518,90.304 93.930 C 90.687 93.341,91.990 91.295,93.200 89.383 C 94.410 87.471,95.789 85.432,96.265 84.853 L 97.131 83.800 177.765 83.697 C 256.527 83.597,258.400 83.612,258.400 84.348 C 258.400 84.763,258.130 85.326,257.800 85.600 C 257.470 85.874,257.200 86.346,257.200 86.649 C 257.200 86.952,257.049 87.200,256.864 87.200 C 256.680 87.200,256.312 87.605,256.048 88.100 C 255.197 89.697,251.070 96.156,249.159 98.884 C 248.742 99.480,248.400 100.054,248.400 100.159 C 248.400 100.264,247.635 101.496,246.700 102.898 C 245.765 104.300,244.770 105.796,244.488 106.223 C 244.207 106.650,243.871 107.315,243.742 107.700 C 243.612 108.085,243.344 108.400,243.145 108.400 C 242.946 108.400,242.562 108.895,242.292 109.500 C 242.023 110.105,241.037 111.727,240.101 113.104 C 239.165 114.481,238.400 115.786,238.400 116.004 C 238.400 116.222,238.223 116.400,238.008 116.400 C 237.792 116.400,237.502 116.850,237.364 117.400 C 237.226 117.950,236.948 118.400,236.747 118.400 C 236.545 118.400,236.197 118.805,235.973 119.300 C 235.425 120.510,234.933 121.316,232.700 124.661 C 231.655 126.227,230.800 127.626,230.800 127.771 C 230.800 127.915,230.617 128.251,230.393 128.517 C 228.766 130.445,228.400 130.987,228.400 131.461 C 228.400 131.758,228.249 132.000,228.064 132.000 C 227.880 132.000,227.518 132.405,227.260 132.900 C 227.002 133.395,226.435 134.340,226.000 135.000 C 225.565 135.660,225.087 136.470,224.938 136.800 C 224.789 137.130,224.185 138.030,223.596 138.800 C 222.682 139.996,221.754 141.467,218.679 146.600 C 218.416 147.040,218.110 147.490,218.000 147.600 C 217.610 147.990,216.000 150.371,216.000 150.558 C 216.000 150.735,212.031 156.868,210.353 159.284 C 209.939 159.880,209.600 160.472,209.600 160.601 C 209.600 160.729,209.410 161.051,209.177 161.317 C 208.945 161.583,207.663 163.510,206.329 165.600 C 203.065 170.714,200.900 174.074,200.402 174.800 C 199.252 176.477,197.200 179.687,197.200 179.810 C 197.200 179.887,196.390 181.133,195.400 182.579 C 194.410 184.025,193.600 185.292,193.600 185.394 C 193.600 185.496,192.475 187.265,191.100 189.324 C 187.676 194.452,187.631 194.522,187.318 195.200 C 187.165 195.530,186.887 195.980,186.699 196.200 C 186.512 196.420,185.617 197.770,184.711 199.200 C 183.805 200.630,182.554 202.574,181.932 203.520 C 181.309 204.466,180.800 205.411,180.800 205.620 C 180.800 205.829,180.649 206.000,180.464 206.000 C 180.280 206.000,179.918 206.405,179.660 206.900 C 179.402 207.395,178.878 208.271,178.496 208.847 C 177.491 210.359,174.276 215.502,173.764 216.416 C 173.525 216.844,173.030 217.525,172.664 217.929 C 172.299 218.333,172.000 218.874,172.000 219.131 C 172.000 219.389,171.820 219.600,171.600 219.600 C 171.380 219.600,171.200 219.782,171.200 220.004 C 171.200 220.226,170.615 221.270,169.900 222.324 C 168.081 225.004,167.634 225.712,167.327 226.400 C 167.179 226.730,166.955 227.090,166.829 227.200 C 166.468 227.515,164.800 229.947,164.800 230.158 C 164.800 230.335,160.831 236.468,159.153 238.884 C 158.739 239.480,158.400 240.084,158.400 240.226 C 158.400 240.368,157.860 241.167,157.200 242.000 C 156.540 242.833,156.000 243.626,156.000 243.761 C 156.000 243.896,155.460 244.752,154.800 245.663 C 154.140 246.575,153.600 247.563,153.600 247.860 C 153.600 248.157,153.441 248.400,153.246 248.400 C 153.051 248.400,152.117 249.705,151.172 251.300 C 150.226 252.895,148.946 254.902,148.326 255.760 C 147.707 256.618,147.200 257.544,147.200 257.817 C 147.200 258.091,146.930 258.418,146.600 258.545 C 146.270 258.671,146.000 259.051,146.000 259.387 C 146.000 259.724,145.832 260.000,145.627 260.000 C 145.422 260.000,145.128 260.405,144.974 260.900 C 144.819 261.395,144.177 262.456,143.547 263.258 C 142.916 264.059,142.400 264.826,142.400 264.962 C 142.400 265.097,141.770 266.105,141.000 267.200 C 140.230 268.295,139.600 269.374,139.600 269.596 C 139.600 269.818,139.432 270.000,139.227 270.000 C 139.022 270.000,138.728 270.405,138.573 270.900 C 138.419 271.395,138.181 271.890,138.046 272.000 C 137.559 272.396,136.000 274.775,136.000 275.122 C 136.000 275.318,135.344 276.153,134.541 276.979 C 133.516 278.035,133.298 278.440,133.809 278.341 C 134.208 278.263,134.820 277.711,135.168 277.113 C 135.515 276.516,137.330 273.673,139.200 270.798 C 141.070 267.922,143.995 263.422,145.700 260.799 C 147.405 258.176,148.800 255.914,148.800 255.773 C 148.800 255.631,149.295 254.859,149.900 254.056 C 150.505 253.253,151.180 252.290,151.400 251.915 C 152.064 250.783,156.045 244.574,158.611 240.668 C 159.937 238.650,161.730 235.829,162.595 234.399 C 163.461 232.970,164.319 231.620,164.501 231.400 C 164.684 231.180,165.701 229.650,166.762 228.000 C 172.109 219.683,174.955 215.297,175.641 214.316 C 176.059 213.720,176.400 213.146,176.400 213.041 C 176.400 212.936,177.210 211.667,178.200 210.221 C 179.190 208.775,180.000 207.497,180.000 207.380 C 180.000 207.263,180.342 206.680,180.759 206.084 C 181.875 204.491,186.167 197.893,186.400 197.413 C 186.510 197.186,187.428 195.740,188.440 194.200 C 193.605 186.338,195.017 184.165,195.202 183.800 C 195.312 183.580,196.101 182.320,196.954 181.000 C 198.970 177.879,200.630 175.297,202.995 171.600 C 204.051 169.950,205.669 167.430,206.591 166.000 C 207.513 164.570,209.008 162.230,209.913 160.800 C 210.818 159.370,211.708 158.020,211.892 157.800 C 212.075 157.580,212.662 156.680,213.196 155.800 C 213.730 154.920,215.508 152.130,217.147 149.600 C 218.786 147.070,220.998 143.650,222.062 142.000 C 223.126 140.350,224.182 138.730,224.408 138.400 C 224.633 138.070,225.735 136.360,226.856 134.600 C 230.760 128.471,232.769 125.397,233.194 124.905 C 233.430 124.633,233.752 124.093,233.911 123.705 C 234.070 123.317,235.086 121.650,236.169 120.000 C 237.252 118.350,238.891 115.830,239.811 114.400 C 241.744 111.397,245.381 105.755,247.806 102.000 C 248.729 100.570,250.500 97.842,251.742 95.938 C 252.984 94.034,254.000 92.362,254.000 92.221 C 254.000 92.081,254.187 91.749,254.415 91.483 C 255.846 89.814,258.790 84.852,258.795 84.100 L 258.800 83.200 177.789 83.200 L 96.778 83.200 92.894 89.100 M79.906 109.300 C 77.957 112.167,75.168 116.800,75.390 116.800 C 75.491 116.800,76.590 115.225,77.833 113.300 C 79.076 111.375,80.448 109.291,80.882 108.669 C 81.316 108.046,81.595 107.461,81.502 107.368 C 81.409 107.276,80.691 108.145,79.906 109.300 M73.678 118.947 C 71.316 122.446,65.773 122.166,130.941 121.840 C 180.913 121.590,188.400 121.628,188.400 122.130 C 188.400 122.898,187.655 124.275,186.244 126.115 C 185.609 126.944,185.182 127.715,185.296 127.830 C 185.625 128.158,188.716 123.416,188.866 122.355 L 189.000 121.400 131.100 121.299 C 99.255 121.243,73.200 121.105,73.200 120.993 C 73.200 120.687,74.124 119.095,74.764 118.298 C 75.075 117.911,75.229 117.496,75.108 117.375 C 74.987 117.253,74.343 117.961,73.678 118.947 M265.526 122.300 C 265.197 122.685,264.116 124.260,263.124 125.800 C 262.132 127.340,259.898 130.812,258.160 133.516 C 256.422 136.219,253.807 140.269,252.349 142.516 C 244.976 153.872,241.683 159.200,242.035 159.200 C 242.250 159.200,242.545 158.885,242.692 158.500 C 242.839 158.115,243.104 157.620,243.280 157.400 C 243.836 156.704,246.250 152.953,247.829 150.329 C 248.666 148.938,249.456 147.710,249.585 147.600 C 249.955 147.283,252.057 144.020,252.650 142.841 C 252.804 142.534,254.071 140.589,255.465 138.518 C 256.859 136.448,258.000 134.584,258.000 134.377 C 258.000 134.170,258.168 134.000,258.373 134.000 C 258.578 134.000,258.872 133.595,259.026 133.100 C 259.181 132.605,259.823 131.544,260.453 130.742 C 261.084 129.941,261.600 129.187,261.600 129.068 C 261.600 128.948,262.410 127.667,263.400 126.221 C 264.390 124.775,265.200 123.420,265.200 123.210 C 265.200 122.115,267.409 122.000,288.374 122.000 L 310.000 122.000 310.000 122.939 C 310.000 123.455,309.640 124.293,309.200 124.800 C 308.760 125.307,308.400 125.851,308.400 126.009 C 308.400 126.167,307.224 128.074,305.786 130.248 C 304.349 132.422,302.998 134.470,302.785 134.800 C 302.571 135.130,301.498 136.779,300.398 138.465 C 299.299 140.151,298.400 141.726,298.400 141.965 C 298.400 142.204,298.249 142.400,298.064 142.400 C 297.880 142.400,297.518 142.805,297.260 143.300 C 297.002 143.795,296.435 144.740,296.000 145.400 C 295.565 146.060,294.998 147.005,294.740 147.500 C 294.482 147.995,294.120 148.400,293.936 148.400 C 293.751 148.400,293.600 148.564,293.600 148.765 C 293.600 149.133,291.350 152.730,290.213 154.181 C 289.876 154.611,289.600 155.181,289.600 155.448 C 289.600 155.715,289.465 155.993,289.300 156.067 C 288.958 156.219,287.200 158.657,287.200 158.980 C 287.200 159.097,286.429 160.319,285.487 161.696 C 284.544 163.073,282.837 165.751,281.692 167.646 C 280.547 169.542,279.339 171.319,279.005 171.595 C 278.672 171.872,278.400 172.388,278.400 172.743 C 278.400 173.454,278.832 172.876,282.088 167.800 C 287.959 158.649,292.718 151.317,295.664 146.888 C 296.729 145.287,297.600 143.907,297.600 143.823 C 297.600 143.693,299.422 140.830,300.797 138.800 C 302.180 136.758,304.800 132.658,304.800 132.537 C 304.800 132.457,305.430 131.495,306.200 130.400 C 306.970 129.305,307.600 128.333,307.600 128.241 C 307.600 128.149,308.410 126.843,309.399 125.337 C 310.389 123.832,311.199 122.375,311.199 122.100 C 311.201 121.194,266.302 121.391,265.526 122.300 M182.292 132.273 C 180.869 134.433,178.395 138.270,176.795 140.800 C 173.631 145.802,171.424 149.245,168.206 154.200 C 165.760 157.967,163.078 162.131,161.121 165.200 C 156.563 172.351,155.038 174.715,154.359 175.684 C 153.942 176.280,153.600 176.872,153.600 177.001 C 153.600 177.129,153.409 177.451,153.176 177.717 C 152.943 177.983,151.835 179.640,150.714 181.400 C 148.622 184.683,146.449 188.076,143.286 193.000 C 142.296 194.540,141.017 196.484,140.443 197.321 C 139.870 198.157,139.220 199.147,139.000 199.520 C 138.311 200.690,134.635 206.423,131.768 210.800 C 128.612 215.619,128.138 216.372,127.749 217.200 C 127.594 217.530,126.957 218.456,126.334 219.258 C 125.710 220.059,125.200 220.901,125.200 221.129 C 125.200 221.357,124.975 221.786,124.700 222.082 C 123.923 222.921,122.581 224.897,122.039 226.000 C 121.664 226.765,121.834 226.672,122.764 225.600 C 123.432 224.830,123.983 224.081,123.989 223.935 C 124.001 223.640,126.431 219.838,127.387 218.619 C 127.724 218.189,128.000 217.604,128.000 217.319 C 128.000 217.033,128.151 216.800,128.336 216.800 C 128.520 216.800,128.882 216.395,129.140 215.900 C 129.398 215.405,129.922 214.518,130.304 213.930 C 130.687 213.341,131.990 211.304,133.200 209.404 C 134.410 207.504,136.253 204.655,137.295 203.074 C 138.337 201.493,139.192 199.975,139.195 199.700 C 139.198 199.425,139.365 199.200,139.567 199.200 C 139.769 199.200,140.341 198.525,140.838 197.700 C 142.662 194.668,144.592 191.796,144.892 191.667 C 145.061 191.593,145.200 191.362,145.200 191.153 C 145.200 190.693,149.148 184.485,150.900 182.191 C 151.285 181.686,151.600 181.158,151.600 181.016 C 151.600 180.874,152.631 179.192,153.892 177.279 C 155.152 175.366,156.367 173.497,156.592 173.126 C 156.816 172.755,157.524 171.585,158.165 170.526 C 158.806 169.467,159.440 168.510,159.575 168.400 C 159.978 168.069,162.124 164.721,162.651 163.600 C 162.806 163.270,163.398 162.369,163.966 161.598 C 164.535 160.828,165.219 159.838,165.487 159.398 C 165.755 158.959,166.525 157.700,167.200 156.600 C 167.875 155.500,168.645 154.240,168.913 153.800 C 169.181 153.360,169.490 152.910,169.600 152.800 C 169.988 152.412,171.600 150.030,171.600 149.844 C 171.600 149.741,172.364 148.519,173.297 147.128 C 175.323 144.111,175.844 143.265,176.341 142.184 C 176.548 141.735,177.005 141.127,177.358 140.835 C 177.711 140.542,178.000 140.155,178.000 139.976 C 178.000 139.797,178.765 138.504,179.700 137.102 C 180.635 135.700,181.630 134.204,181.912 133.777 C 182.193 133.350,182.526 132.697,182.651 132.328 C 182.776 131.958,183.131 131.559,183.439 131.440 C 183.748 131.322,184.000 131.009,184.000 130.744 C 184.000 130.479,184.299 129.933,184.664 129.529 C 185.030 129.125,185.227 128.694,185.104 128.571 C 184.980 128.447,183.715 130.113,182.292 132.273 M238.400 164.298 C 235.183 169.304,233.847 171.362,230.156 177.000 C 228.860 178.980,227.710 180.780,227.600 181.000 C 227.490 181.220,226.864 182.210,226.208 183.200 C 225.553 184.190,224.833 185.302,224.608 185.670 C 224.384 186.039,223.617 187.254,222.904 188.370 C 222.191 189.487,221.741 190.396,221.904 190.392 C 222.067 190.387,222.830 189.360,223.600 188.108 C 225.656 184.765,229.077 179.517,229.784 178.619 C 230.123 178.189,230.400 177.619,230.400 177.352 C 230.400 177.085,230.535 176.807,230.700 176.733 C 231.029 176.587,232.800 174.148,232.800 173.841 C 232.800 173.736,233.574 172.514,234.519 171.125 C 235.465 169.736,236.936 167.430,237.789 166.000 C 238.641 164.570,239.863 162.725,240.503 161.900 C 241.143 161.075,241.607 160.227,241.533 160.015 C 241.460 159.803,240.050 161.730,238.400 164.298 M276.395 175.700 C 274.792 178.119,274.151 179.156,273.737 180.000 C 273.575 180.330,272.578 181.876,271.521 183.436 C 270.465 184.995,269.600 186.465,269.600 186.702 C 269.600 186.939,269.465 187.193,269.300 187.267 C 268.930 187.431,267.200 189.870,267.200 190.226 C 267.200 190.368,266.660 191.167,266.000 192.000 C 265.340 192.833,264.800 193.622,264.800 193.754 C 264.800 193.885,263.990 195.175,263.000 196.621 C 262.010 198.067,261.200 199.406,261.200 199.597 C 261.200 199.787,260.975 200.186,260.700 200.482 C 259.979 201.260,258.400 203.529,258.400 203.787 C 258.400 203.908,257.860 204.752,257.200 205.663 C 256.540 206.575,256.000 207.563,256.000 207.860 C 256.000 208.157,255.816 208.400,255.590 208.400 C 255.365 208.400,255.005 208.805,254.790 209.300 C 254.575 209.795,253.504 211.550,252.410 213.200 C 251.316 214.850,250.195 216.650,249.919 217.200 C 249.643 217.750,249.188 218.344,248.908 218.520 C 248.629 218.696,248.400 219.018,248.400 219.237 C 248.400 219.455,248.212 219.851,247.981 220.117 C 247.082 221.154,244.784 224.918,244.949 225.083 C 245.108 225.241,247.358 221.895,253.600 212.220 C 254.810 210.344,255.986 208.493,256.212 208.105 C 256.748 207.190,259.075 203.562,262.181 198.800 C 263.544 196.710,265.090 194.280,265.617 193.400 C 266.144 192.520,266.725 191.620,266.908 191.400 C 267.092 191.180,267.982 189.830,268.887 188.400 C 269.792 186.970,271.287 184.630,272.209 183.200 C 273.131 181.770,274.747 179.250,275.801 177.600 C 276.855 175.950,277.893 174.375,278.107 174.100 C 278.322 173.825,278.338 173.600,278.143 173.600 C 277.947 173.600,277.161 174.545,276.395 175.700 M220.135 192.721 C 219.452 193.755,218.198 195.647,217.347 196.927 C 213.827 202.222,212.792 203.830,212.536 204.400 C 212.276 204.978,204.710 216.663,203.158 218.884 C 202.741 219.480,202.400 220.053,202.400 220.158 C 202.400 220.336,198.957 225.663,196.333 229.544 C 195.685 230.503,195.236 231.369,195.335 231.469 C 195.568 231.701,199.200 226.301,199.200 225.722 C 199.200 225.482,199.430 225.197,199.712 225.089 C 199.994 224.981,200.579 224.197,201.012 223.346 C 201.445 222.496,201.890 221.710,202.000 221.600 C 202.406 221.194,204.000 218.826,204.000 218.628 C 204.000 218.516,204.900 217.097,206.000 215.476 C 207.100 213.855,208.000 212.335,208.000 212.098 C 208.000 211.861,208.135 211.607,208.300 211.533 C 208.629 211.387,210.400 208.948,210.400 208.641 C 210.400 208.536,211.174 207.314,212.119 205.925 C 213.065 204.536,214.543 202.230,215.404 200.800 C 216.265 199.370,217.119 198.020,217.301 197.800 C 218.241 196.668,221.685 191.152,221.542 191.009 C 221.450 190.917,220.817 191.688,220.135 192.721 M242.029 229.251 C 240.706 231.313,239.348 233.352,239.012 233.781 C 238.675 234.211,238.400 234.697,238.400 234.862 C 238.400 235.027,237.590 236.320,236.600 237.737 C 235.610 239.153,234.800 240.441,234.800 240.598 C 234.800 240.756,234.305 241.541,233.700 242.344 C 233.095 243.147,232.381 244.162,232.113 244.602 C 231.845 245.041,231.075 246.300,230.400 247.400 C 229.725 248.500,228.955 249.760,228.687 250.200 C 228.419 250.640,228.110 251.090,228.000 251.200 C 227.563 251.637,226.000 253.982,226.000 254.201 C 226.000 254.329,225.819 254.651,225.598 254.917 C 225.377 255.183,224.446 256.570,223.529 258.000 C 222.611 259.430,221.352 261.374,220.730 262.320 C 220.109 263.266,219.600 264.211,219.600 264.420 C 219.600 264.629,219.432 264.800,219.227 264.800 C 219.022 264.800,218.728 265.205,218.574 265.700 C 218.419 266.195,217.803 267.230,217.205 268.000 C 216.606 268.770,216.045 269.580,215.958 269.800 C 215.871 270.020,214.765 271.766,213.500 273.679 C 212.235 275.592,211.200 277.527,211.200 277.979 L 211.200 278.800 268.933 278.800 C 300.687 278.800,326.770 278.903,326.896 279.029 C 327.089 279.223,324.363 283.638,321.553 287.684 C 321.139 288.280,320.800 288.940,320.800 289.150 C 320.800 289.361,320.665 289.593,320.500 289.667 C 320.130 289.831,318.400 292.270,318.400 292.626 C 318.400 292.768,317.860 293.567,317.200 294.400 C 316.540 295.233,316.000 296.034,316.000 296.179 C 316.000 296.442,314.026 299.566,310.341 305.134 C 309.274 306.747,308.400 308.150,308.400 308.250 C 308.400 308.351,308.212 308.651,307.981 308.917 C 307.073 309.965,304.785 313.718,304.953 313.886 C 305.101 314.034,309.351 307.899,310.000 306.600 C 310.308 305.983,312.288 302.906,314.447 299.688 C 315.521 298.087,316.400 296.703,316.400 296.613 C 316.400 296.524,317.210 295.267,318.200 293.821 C 319.190 292.375,320.000 291.108,320.000 291.006 C 320.000 290.904,321.136 289.145,322.523 287.098 C 323.911 285.051,325.178 283.111,325.339 282.788 C 325.887 281.686,326.630 280.486,327.165 279.843 C 328.880 277.775,331.485 277.851,269.100 278.162 C 229.888 278.358,211.600 278.318,211.600 278.039 C 211.600 277.666,212.726 275.777,216.800 269.314 C 217.570 268.093,218.470 266.688,218.800 266.192 C 219.130 265.696,221.110 262.645,223.200 259.412 C 225.290 256.179,227.270 253.123,227.600 252.621 C 227.930 252.119,228.731 250.829,229.381 249.754 C 230.030 248.679,230.670 247.710,230.802 247.600 C 230.934 247.490,231.475 246.680,232.005 245.800 C 232.848 244.398,236.057 239.375,240.182 233.000 C 240.894 231.900,242.237 229.858,243.167 228.462 C 244.097 227.066,244.763 225.829,244.646 225.713 C 244.530 225.596,243.352 227.188,242.029 229.251 M119.906 229.300 C 117.957 232.167,115.168 236.800,115.390 236.800 C 115.491 236.800,116.590 235.225,117.833 233.300 C 119.076 231.375,120.448 229.291,120.882 228.669 C 121.316 228.046,121.595 227.461,121.502 227.368 C 121.409 227.276,120.691 228.145,119.906 229.300 M192.456 235.664 C 185.791 246.011,182.178 251.634,178.875 256.800 C 177.961 258.230,177.030 259.670,176.805 260.000 C 176.581 260.330,175.469 262.040,174.334 263.800 C 173.200 265.560,171.761 267.774,171.136 268.720 C 170.511 269.666,170.000 270.505,170.000 270.585 C 170.000 270.664,168.875 272.452,167.500 274.558 C 164.274 279.498,160.299 285.660,157.410 290.200 C 156.150 292.180,154.807 294.250,154.425 294.800 C 152.609 297.415,151.628 299.200,152.008 299.200 C 152.237 299.200,152.544 298.885,152.689 298.500 C 152.835 298.115,153.729 296.664,154.677 295.275 C 155.625 293.886,156.400 292.687,156.400 292.610 C 156.400 292.488,158.394 289.367,159.600 287.600 C 160.654 286.056,162.727 282.829,162.856 282.532 C 163.025 282.143,167.332 275.498,168.440 273.916 C 168.858 273.320,169.200 272.746,169.200 272.641 C 169.200 272.536,170.010 271.267,171.000 269.821 C 171.990 268.375,172.800 267.085,172.800 266.954 C 172.800 266.822,173.340 266.033,174.000 265.200 C 174.660 264.367,175.200 263.581,175.200 263.454 C 175.200 263.328,176.100 261.897,177.200 260.276 C 178.300 258.655,179.200 257.120,179.200 256.864 C 179.200 256.609,179.351 256.400,179.536 256.400 C 179.720 256.400,180.082 255.995,180.340 255.500 C 180.598 255.005,181.165 254.060,181.600 253.400 C 182.035 252.740,182.602 251.795,182.860 251.300 C 183.118 250.805,183.459 250.400,183.618 250.400 C 183.777 250.400,184.021 250.085,184.160 249.700 C 184.299 249.315,184.637 248.640,184.911 248.200 C 186.071 246.338,187.022 244.966,187.495 244.471 C 187.773 244.181,188.000 243.787,188.000 243.597 C 188.000 243.406,188.810 242.067,189.800 240.621 C 190.790 239.175,191.600 237.915,191.600 237.821 C 191.600 237.727,192.421 236.451,193.426 234.984 C 194.430 233.518,195.164 232.230,195.057 232.123 C 194.950 232.016,193.779 233.610,192.456 235.664 M112.575 240.668 C 111.314 242.611,109.653 245.190,108.885 246.400 C 107.509 248.568,104.617 253.046,98.335 262.734 C 96.575 265.448,95.231 267.765,95.349 267.882 C 95.466 267.999,96.066 267.248,96.681 266.213 C 97.296 265.177,98.115 263.958,98.500 263.504 C 98.885 263.049,99.200 262.450,99.200 262.172 C 99.200 261.894,99.335 261.607,99.500 261.533 C 99.842 261.381,101.600 258.943,101.600 258.620 C 101.600 258.503,102.410 257.225,103.400 255.779 C 104.390 254.333,105.200 253.064,105.200 252.959 C 105.200 252.723,106.818 250.417,107.500 249.682 C 107.775 249.386,108.000 248.886,108.000 248.571 C 108.000 248.257,108.180 248.000,108.400 248.000 C 108.620 248.000,108.800 247.818,108.800 247.596 C 108.800 247.374,109.430 246.295,110.200 245.200 C 110.970 244.105,111.600 243.097,111.600 242.962 C 111.600 242.826,112.140 242.033,112.800 241.200 C 113.460 240.367,114.000 239.545,114.000 239.374 C 114.000 239.203,114.299 238.733,114.664 238.329 C 115.030 237.925,115.225 237.492,115.099 237.366 C 114.973 237.240,113.837 238.726,112.575 240.668 M92.428 272.023 C 88.946 277.228,88.280 278.574,89.400 278.145 C 89.730 278.018,90.000 277.598,90.000 277.211 C 90.000 276.824,90.315 276.077,90.700 275.549 C 91.837 273.993,92.408 273.044,92.658 272.300 C 92.788 271.915,93.040 271.600,93.220 271.600 C 93.399 271.600,93.660 271.241,93.799 270.802 C 93.938 270.364,94.332 269.725,94.674 269.383 C 95.016 269.042,95.203 268.669,95.090 268.556 C 94.977 268.443,93.779 270.003,92.428 272.023 M149.775 302.035 C 145.861 308.043,145.200 309.175,145.727 308.970 C 145.987 308.869,146.630 308.024,147.156 307.093 C 147.682 306.162,148.923 304.181,149.915 302.692 C 150.906 301.203,151.635 299.901,151.534 299.801 C 151.433 299.700,150.642 300.705,149.775 302.035 M143.001 312.578 C 141.943 314.276,141.216 315.865,141.345 316.201 C 141.548 316.730,151.003 316.800,222.360 316.800 L 303.146 316.800 304.029 315.500 L 304.912 314.200 303.840 315.300 L 302.768 316.400 222.407 316.400 C 170.309 316.400,141.962 316.262,141.805 316.008 C 141.671 315.792,142.396 314.337,143.416 312.776 C 144.435 311.214,145.183 309.850,145.078 309.745 C 144.972 309.639,144.038 310.914,143.001 312.578 " stroke="none" fill="#84bcf4" fill-rule="evenodd"></path><path id="path2" d="M23.200 0.400 C 23.200 0.620,22.409 0.800,21.443 0.800 C 20.250 0.800,19.612 0.993,19.455 1.400 C 19.321 1.751,18.721 2.000,18.013 2.000 C 17.201 2.000,16.800 2.199,16.800 2.600 C 16.800 2.975,16.421 3.200,15.787 3.200 C 15.231 3.200,14.671 3.470,14.545 3.800 C 14.418 4.130,14.064 4.400,13.757 4.400 C 13.451 4.400,13.200 4.670,13.200 5.000 C 13.200 5.400,12.800 5.600,12.000 5.600 C 11.200 5.600,10.800 5.800,10.800 6.200 C 10.800 6.530,10.620 6.800,10.400 6.800 C 10.180 6.800,9.280 7.520,8.400 8.400 C 7.520 9.280,6.800 10.180,6.800 10.400 C 6.800 10.620,6.530 10.800,6.200 10.800 C 5.800 10.800,5.600 11.200,5.600 12.000 C 5.600 12.800,5.400 13.200,5.000 13.200 C 4.670 13.200,4.400 13.451,4.400 13.757 C 4.400 14.064,4.130 14.418,3.800 14.545 C 3.470 14.671,3.200 15.231,3.200 15.787 C 3.200 16.421,2.975 16.800,2.600 16.800 C 2.199 16.800,2.000 17.201,2.000 18.013 C 2.000 18.721,1.751 19.321,1.400 19.455 C 0.993 19.612,0.800 20.250,0.800 21.443 C 0.800 22.409,0.620 23.200,0.400 23.200 C 0.134 23.200,0.000 82.400,0.000 200.000 C 0.000 317.600,0.134 376.800,0.400 376.800 C 0.620 376.800,0.800 377.616,0.800 378.613 C 0.800 379.855,0.989 380.498,1.400 380.655 C 1.742 380.787,2.000 381.383,2.000 382.043 C 2.000 382.805,2.205 383.200,2.600 383.200 C 3.000 383.200,3.200 383.600,3.200 384.400 C 3.200 385.200,3.400 385.600,3.800 385.600 C 4.130 385.600,4.400 385.870,4.400 386.200 C 4.400 386.530,4.670 386.800,5.000 386.800 C 5.400 386.800,5.600 387.200,5.600 388.000 C 5.600 388.800,5.800 389.200,6.200 389.200 C 6.530 389.200,6.800 389.408,6.800 389.662 C 6.800 390.207,9.860 393.200,10.417 393.200 C 10.628 393.200,10.800 393.470,10.800 393.800 C 10.800 394.200,11.200 394.400,12.000 394.400 C 12.800 394.400,13.200 394.600,13.200 395.000 C 13.200 395.330,13.470 395.600,13.800 395.600 C 14.130 395.600,14.400 395.870,14.400 396.200 C 14.400 396.600,14.800 396.800,15.600 396.800 C 16.400 396.800,16.800 397.000,16.800 397.400 C 16.800 397.801,17.201 398.000,18.013 398.000 C 18.721 398.000,19.321 398.249,19.455 398.600 C 19.612 399.007,20.250 399.200,21.443 399.200 C 22.409 399.200,23.200 399.380,23.200 399.600 C 23.200 399.866,82.400 400.000,200.000 400.000 C 317.600 400.000,376.800 399.866,376.800 399.600 C 376.800 399.380,377.616 399.200,378.613 399.200 C 379.855 399.200,380.498 399.011,380.655 398.600 C 380.787 398.258,381.383 398.000,382.043 398.000 C 382.805 398.000,383.200 397.795,383.200 397.400 C 383.200 397.000,383.600 396.800,384.400 396.800 C 385.200 396.800,385.600 396.600,385.600 396.200 C 385.600 395.870,385.870 395.600,386.200 395.600 C 386.530 395.600,386.800 395.330,386.800 395.000 C 386.800 394.600,387.200 394.400,388.000 394.400 C 388.800 394.400,389.200 394.200,389.200 393.800 C 389.200 393.470,389.401 393.200,389.647 393.200 C 389.893 393.200,390.793 392.501,391.647 391.647 C 392.501 390.793,393.200 389.893,393.200 389.647 C 393.200 389.401,393.470 389.200,393.800 389.200 C 394.200 389.200,394.400 388.800,394.400 388.000 C 394.400 387.200,394.600 386.800,395.000 386.800 C 395.330 386.800,395.600 386.530,395.600 386.200 C 395.600 385.870,395.870 385.600,396.200 385.600 C 396.600 385.600,396.800 385.200,396.800 384.400 C 396.800 383.600,397.000 383.200,397.400 383.200 C 397.795 383.200,398.000 382.805,398.000 382.043 C 398.000 381.383,398.258 380.787,398.600 380.655 C 399.011 380.498,399.200 379.855,399.200 378.613 C 399.200 377.616,399.380 376.800,399.600 376.800 C 399.866 376.800,400.000 317.600,400.000 200.000 C 400.000 82.400,399.866 23.200,399.600 23.200 C 399.380 23.200,399.200 22.409,399.200 21.443 C 399.200 20.250,399.007 19.612,398.600 19.455 C 398.249 19.321,398.000 18.721,398.000 18.013 C 398.000 17.201,397.801 16.800,397.400 16.800 C 397.000 16.800,396.800 16.400,396.800 15.600 C 396.800 14.800,396.600 14.400,396.200 14.400 C 395.870 14.400,395.600 14.130,395.600 13.800 C 395.600 13.470,395.330 13.200,395.000 13.200 C 394.600 13.200,394.400 12.800,394.400 12.000 C 394.400 11.200,394.200 10.800,393.800 10.800 C 393.470 10.800,393.200 10.628,393.200 10.417 C 393.200 9.860,390.207 6.800,389.662 6.800 C 389.408 6.800,389.200 6.530,389.200 6.200 C 389.200 5.800,388.800 5.600,388.000 5.600 C 387.200 5.600,386.800 5.400,386.800 5.000 C 386.800 4.670,386.530 4.400,386.200 4.400 C 385.870 4.400,385.600 4.130,385.600 3.800 C 385.600 3.400,385.200 3.200,384.400 3.200 C 383.600 3.200,383.200 3.000,383.200 2.600 C 383.200 2.205,382.805 2.000,382.043 2.000 C 381.383 2.000,380.787 1.742,380.655 1.400 C 380.498 0.989,379.855 0.800,378.613 0.800 C 377.616 0.800,376.800 0.620,376.800 0.400 C 376.800 0.134,317.600 0.000,200.000 0.000 C 82.400 0.000,23.200 0.134,23.200 0.400 M259.866 83.027 C 260.176 83.835,258.052 87.910,257.100 88.333 C 256.935 88.407,256.800 88.709,256.800 89.005 C 256.800 89.301,256.563 89.781,256.274 90.071 C 255.984 90.362,255.219 91.471,254.574 92.535 C 253.928 93.600,253.087 94.950,252.704 95.535 C 252.322 96.121,251.885 96.870,251.734 97.200 C 251.582 97.530,251.355 97.890,251.229 98.000 C 250.829 98.349,249.200 100.758,249.200 101.000 C 249.200 101.218,247.636 103.564,247.200 104.000 C 247.090 104.110,246.781 104.560,246.513 105.000 C 246.245 105.440,245.475 106.700,244.800 107.800 C 244.125 108.900,243.355 110.160,243.087 110.600 C 242.819 111.040,242.375 111.544,242.100 111.720 C 241.825 111.896,241.600 112.382,241.600 112.800 C 241.600 113.218,241.375 113.704,241.100 113.880 C 240.825 114.056,240.384 114.560,240.121 115.000 C 237.312 119.687,236.227 121.431,236.012 121.600 C 235.872 121.710,235.327 122.520,234.800 123.400 C 234.273 124.280,233.743 125.090,233.621 125.200 C 233.268 125.519,231.772 127.743,231.469 128.400 C 231.316 128.730,230.835 129.540,230.400 130.200 C 229.965 130.860,229.398 131.805,229.140 132.300 C 228.882 132.795,228.520 133.200,228.336 133.200 C 228.151 133.200,228.000 133.433,228.000 133.719 C 228.000 134.004,227.728 134.589,227.396 135.019 C 227.064 135.448,225.669 137.531,224.296 139.647 C 222.923 141.762,221.575 143.832,221.299 144.247 C 221.024 144.661,220.623 145.405,220.409 145.900 C 220.195 146.395,219.855 146.800,219.653 146.800 C 219.452 146.800,219.174 147.250,219.036 147.800 C 218.898 148.350,218.608 148.800,218.392 148.800 C 218.177 148.800,218.000 148.982,218.000 149.204 C 218.000 149.426,217.415 150.465,216.700 151.512 C 215.985 152.559,215.054 154.042,214.630 154.808 C 214.207 155.573,213.757 156.290,213.630 156.400 C 213.077 156.880,211.600 159.206,211.600 159.596 C 211.600 159.832,211.330 160.129,211.000 160.255 C 210.670 160.382,210.400 160.723,210.400 161.014 C 210.400 161.305,210.175 161.788,209.900 162.088 C 209.222 162.828,208.479 164.013,208.005 165.111 C 207.633 165.971,207.272 166.478,206.100 167.785 C 205.825 168.092,205.600 168.467,205.600 168.618 C 205.600 168.769,204.745 170.173,203.700 171.739 C 201.467 175.084,200.975 175.890,200.427 177.100 C 200.203 177.595,199.856 178.000,199.657 178.000 C 199.457 178.000,199.178 178.315,199.037 178.700 C 198.538 180.061,197.551 181.600,197.178 181.600 C 196.970 181.600,196.800 181.826,196.800 182.101 C 196.800 182.377,196.170 183.489,195.400 184.572 C 194.630 185.655,194.000 186.760,194.000 187.028 C 194.000 187.295,193.730 187.618,193.400 187.745 C 193.070 187.871,192.800 188.251,192.800 188.587 C 192.800 188.924,192.638 189.200,192.439 189.200 C 192.241 189.200,191.890 189.740,191.660 190.400 C 191.430 191.060,191.073 191.600,190.867 191.600 C 190.662 191.600,190.384 191.915,190.251 192.300 C 190.118 192.685,189.649 193.540,189.209 194.200 C 188.769 194.860,188.284 195.670,188.131 196.000 C 187.706 196.921,186.237 198.984,185.900 199.133 C 185.735 199.207,185.600 199.496,185.600 199.776 C 185.600 200.056,184.970 201.110,184.200 202.118 C 183.430 203.127,182.800 204.148,182.800 204.389 C 182.800 204.629,182.530 204.929,182.200 205.055 C 181.870 205.182,181.600 205.450,181.600 205.651 C 181.600 205.852,181.109 206.777,180.508 207.708 C 179.030 209.998,178.517 210.839,177.952 211.900 C 177.688 212.395,177.320 212.800,177.136 212.800 C 176.951 212.800,176.800 213.033,176.800 213.319 C 176.800 213.604,176.524 214.189,176.187 214.619 C 175.112 215.990,172.800 219.658,172.800 219.992 C 172.800 220.169,172.530 220.418,172.200 220.545 C 171.870 220.671,171.600 221.132,171.600 221.568 C 171.600 222.004,171.361 222.504,171.070 222.680 C 170.778 222.856,170.416 223.270,170.265 223.600 C 170.115 223.930,169.635 224.740,169.200 225.400 C 168.765 226.060,168.198 227.005,167.940 227.500 C 167.682 227.995,167.320 228.400,167.136 228.400 C 166.951 228.400,166.800 228.564,166.800 228.765 C 166.800 229.133,164.550 232.730,163.413 234.181 C 163.076 234.611,162.800 235.125,162.800 235.324 C 162.800 235.522,162.260 236.367,161.600 237.200 C 160.940 238.033,160.400 238.843,160.400 239.000 C 160.400 239.157,159.860 239.967,159.200 240.800 C 158.540 241.633,158.000 242.501,158.000 242.729 C 158.000 242.957,157.775 243.388,157.500 243.688 C 156.978 244.258,156.733 244.634,154.955 247.600 C 154.362 248.590,153.364 250.056,152.738 250.858 C 152.112 251.659,151.600 252.610,151.600 252.970 C 151.600 253.330,151.330 253.729,151.000 253.855 C 150.670 253.982,150.400 254.342,150.400 254.655 C 150.400 254.969,150.130 255.329,149.800 255.455 C 149.470 255.582,149.200 255.909,149.200 256.183 C 149.200 256.456,148.696 257.382,148.080 258.240 C 147.465 259.098,146.261 260.970,145.405 262.400 C 144.549 263.830,143.748 265.090,143.624 265.200 C 143.178 265.598,141.740 267.816,141.486 268.500 C 141.342 268.885,141.039 269.200,140.813 269.200 C 140.586 269.200,140.400 269.489,140.400 269.842 C 140.400 270.196,139.884 271.141,139.253 271.942 C 138.623 272.744,137.981 273.805,137.826 274.300 C 137.672 274.795,137.419 275.200,137.265 275.200 C 137.110 275.200,136.537 276.018,135.992 277.017 C 134.695 279.393,136.563 279.237,111.000 279.111 L 88.600 279.000 88.474 277.697 C 88.388 276.800,88.544 276.320,88.974 276.154 C 89.319 276.022,89.600 275.700,89.600 275.439 C 89.600 275.177,89.876 274.611,90.213 274.181 C 91.350 272.730,93.600 269.133,93.600 268.765 C 93.600 268.564,93.758 268.400,93.951 268.400 C 94.145 268.400,94.527 267.860,94.800 267.200 C 95.073 266.540,95.434 266.000,95.602 266.000 C 95.770 266.000,96.021 265.685,96.160 265.300 C 96.510 264.332,97.459 262.742,97.864 262.446 C 98.049 262.311,98.560 261.493,99.000 260.629 C 99.440 259.766,99.987 258.866,100.215 258.629 C 100.443 258.393,101.064 257.480,101.594 256.600 C 102.124 255.720,102.667 254.910,102.800 254.800 C 102.933 254.690,103.469 253.880,103.991 253.000 C 105.453 250.536,107.743 247.023,108.032 246.800 C 108.175 246.690,108.419 246.195,108.573 245.700 C 108.728 245.205,109.022 244.800,109.227 244.800 C 109.432 244.800,109.600 244.624,109.600 244.410 C 109.600 244.195,110.736 242.345,112.123 240.298 C 113.511 238.251,114.773 236.311,114.928 235.988 C 115.082 235.665,115.564 234.860,115.998 234.200 C 116.433 233.540,116.966 232.595,117.184 232.100 C 117.402 231.605,117.744 231.200,117.943 231.200 C 118.143 231.200,118.416 230.885,118.549 230.500 C 118.682 230.115,119.108 229.321,119.495 228.735 C 119.883 228.150,120.724 226.800,121.365 225.735 C 122.006 224.671,122.636 223.710,122.765 223.600 C 123.144 223.277,124.800 220.852,124.800 220.620 C 124.800 220.503,125.576 219.274,126.525 217.889 C 127.473 216.503,128.375 215.106,128.529 214.785 C 128.683 214.463,129.165 213.660,129.600 213.000 C 130.035 212.340,130.602 211.395,130.860 210.900 C 131.118 210.405,131.480 210.000,131.664 210.000 C 131.849 210.000,132.000 209.835,132.000 209.634 C 132.000 209.432,132.900 207.921,134.000 206.277 C 135.100 204.632,136.000 203.096,136.000 202.863 C 136.000 202.630,136.225 202.296,136.500 202.120 C 137.061 201.761,137.809 200.645,138.391 199.300 C 138.605 198.805,138.965 198.400,139.190 198.400 C 139.416 198.400,139.600 198.157,139.600 197.860 C 139.600 197.563,140.118 196.606,140.750 195.732 C 141.383 194.859,142.019 193.769,142.165 193.309 C 142.311 192.850,142.694 192.373,143.015 192.250 C 143.337 192.126,143.600 191.749,143.600 191.413 C 143.600 191.076,143.768 190.800,143.973 190.800 C 144.178 190.800,144.472 190.395,144.626 189.900 C 144.781 189.405,145.423 188.344,146.053 187.542 C 146.684 186.741,147.200 185.880,147.200 185.630 C 147.200 185.380,147.470 185.071,147.800 184.945 C 148.130 184.818,148.400 184.456,148.400 184.141 C 148.400 183.628,149.820 181.309,150.446 180.800 C 150.581 180.690,150.804 180.240,150.942 179.800 C 151.079 179.360,151.643 178.513,152.196 177.917 C 152.748 177.322,153.200 176.716,153.200 176.571 C 153.200 176.426,154.055 175.027,155.100 173.461 C 157.333 170.116,157.825 169.310,158.373 168.100 C 158.597 167.605,158.965 167.200,159.190 167.200 C 159.416 167.200,159.600 166.943,159.600 166.629 C 159.600 166.314,159.862 165.795,160.182 165.475 C 160.503 165.155,161.144 164.164,161.608 163.274 C 162.073 162.383,162.711 161.440,163.026 161.178 C 163.342 160.916,163.600 160.469,163.600 160.184 C 163.600 159.900,163.735 159.607,163.900 159.533 C 164.237 159.384,165.706 157.321,166.131 156.400 C 166.284 156.070,166.764 155.260,167.198 154.600 C 167.633 153.940,168.166 152.995,168.384 152.500 C 168.602 152.005,168.944 151.600,169.143 151.600 C 169.343 151.600,169.621 151.285,169.760 150.900 C 169.899 150.515,170.239 149.840,170.515 149.400 C 172.411 146.377,173.533 144.642,175.247 142.088 C 176.321 140.487,177.200 139.021,177.200 138.831 C 177.200 138.641,177.470 138.382,177.800 138.255 C 178.130 138.129,178.400 137.668,178.400 137.232 C 178.400 136.796,178.625 136.296,178.900 136.120 C 179.175 135.944,179.617 135.440,179.883 135.000 C 180.148 134.560,180.851 133.390,181.445 132.400 C 182.038 131.410,183.012 129.970,183.609 129.200 C 184.205 128.430,184.819 127.395,184.974 126.900 C 185.128 126.405,185.422 126.000,185.627 126.000 C 185.832 126.000,186.000 125.749,186.000 125.443 C 186.000 125.136,186.270 124.782,186.600 124.655 C 186.930 124.529,187.200 123.960,187.200 123.392 L 187.200 122.358 130.681 122.643 C 99.595 122.799,73.675 122.805,73.081 122.656 C 71.539 122.269,71.635 120.598,73.329 118.358 C 74.059 117.391,74.781 116.330,74.933 116.000 C 75.085 115.670,75.564 114.860,75.998 114.200 C 76.433 113.540,76.966 112.595,77.184 112.100 C 77.402 111.605,77.744 111.200,77.943 111.200 C 78.143 111.200,78.416 110.885,78.549 110.500 C 78.682 110.115,79.108 109.321,79.495 108.735 C 79.883 108.150,80.724 106.800,81.365 105.735 C 82.006 104.671,82.636 103.710,82.765 103.600 C 83.144 103.277,84.800 100.852,84.800 100.620 C 84.800 100.503,85.576 99.274,86.525 97.889 C 87.473 96.503,88.375 95.106,88.529 94.785 C 88.683 94.463,89.165 93.660,89.600 93.000 C 90.035 92.340,90.602 91.395,90.860 90.900 C 91.118 90.405,91.480 90.000,91.664 90.000 C 91.849 90.000,92.000 89.843,92.000 89.652 C 92.000 89.461,93.021 87.751,94.269 85.852 L 96.537 82.400 178.081 82.400 C 251.755 82.400,259.648 82.461,259.866 83.027 M311.174 121.186 C 311.997 121.627,311.871 123.277,310.956 124.037 C 310.650 124.290,310.400 124.663,310.400 124.865 C 310.400 125.222,308.849 127.597,308.354 128.000 C 308.219 128.110,307.996 128.560,307.858 129.000 C 307.721 129.440,307.157 130.287,306.604 130.883 C 306.052 131.478,305.600 132.084,305.600 132.229 C 305.600 132.374,304.745 133.773,303.700 135.339 C 301.467 138.684,300.975 139.490,300.427 140.700 C 300.203 141.195,299.835 141.600,299.610 141.600 C 299.384 141.600,299.200 141.838,299.200 142.130 C 299.200 142.421,298.570 143.545,297.800 144.628 C 297.030 145.711,296.400 146.804,296.400 147.056 C 296.400 147.308,296.130 147.618,295.800 147.745 C 295.470 147.871,295.200 148.251,295.200 148.587 C 295.200 148.924,295.020 149.200,294.800 149.200 C 294.580 149.200,294.400 149.470,294.400 149.800 C 294.400 150.130,294.071 150.729,293.669 151.131 C 293.268 151.532,292.816 152.117,292.665 152.431 C 292.514 152.744,292.035 153.540,291.600 154.200 C 291.165 154.860,290.687 155.670,290.538 156.000 C 290.389 156.330,289.757 157.256,289.134 158.058 C 288.510 158.859,288.000 159.632,288.000 159.774 C 288.000 160.063,286.471 162.286,285.700 163.118 C 285.425 163.414,285.200 163.813,285.200 164.003 C 285.200 164.194,284.390 165.533,283.400 166.979 C 282.410 168.425,281.600 169.715,281.600 169.846 C 281.600 169.978,281.090 170.741,280.466 171.542 C 279.843 172.344,279.206 173.270,279.051 173.600 C 278.629 174.497,278.032 175.444,275.397 179.398 C 272.802 183.292,272.184 184.276,271.749 185.200 C 271.594 185.530,270.987 186.430,270.400 187.200 C 269.813 187.970,269.206 188.870,269.051 189.200 C 268.548 190.270,266.396 193.645,265.990 194.000 C 265.864 194.110,265.230 195.079,264.581 196.154 C 263.931 197.229,263.083 198.579,262.695 199.154 C 262.308 199.729,261.882 200.515,261.749 200.900 C 261.616 201.285,261.343 201.600,261.143 201.600 C 260.944 201.600,260.597 202.005,260.373 202.500 C 259.813 203.738,257.720 207.112,257.209 207.600 C 257.094 207.710,256.781 208.160,256.513 208.600 C 256.245 209.040,255.475 210.300,254.800 211.400 C 254.125 212.500,253.355 213.760,253.087 214.200 C 252.819 214.640,252.375 215.144,252.100 215.320 C 251.825 215.496,251.600 215.951,251.600 216.331 C 251.600 216.711,251.105 217.574,250.500 218.249 C 249.895 218.925,248.954 220.315,248.408 221.339 C 247.863 222.362,247.278 223.200,247.108 223.200 C 246.939 223.200,246.800 223.442,246.800 223.738 C 246.800 224.034,246.440 224.602,246.000 225.000 C 245.560 225.398,245.200 225.886,245.200 226.083 C 245.200 226.280,244.165 228.007,242.900 229.919 C 240.426 233.658,239.896 234.504,239.152 235.900 C 238.888 236.395,238.520 236.800,238.336 236.800 C 238.151 236.800,238.000 237.057,238.000 237.371 C 238.000 237.686,237.763 238.181,237.474 238.471 C 237.025 238.923,235.730 240.924,234.200 243.534 C 233.980 243.910,233.350 244.839,232.800 245.600 C 231.606 247.252,230.976 248.288,230.427 249.500 C 230.203 249.995,229.856 250.400,229.657 250.400 C 229.457 250.400,229.188 250.715,229.058 251.100 C 228.929 251.485,228.593 252.151,228.312 252.580 C 228.030 253.009,227.257 254.179,226.594 255.180 C 225.931 256.181,225.035 257.675,224.603 258.500 C 224.171 259.325,223.675 260.000,223.499 260.000 C 223.324 260.000,223.005 260.405,222.791 260.900 C 222.304 262.026,221.689 263.010,220.353 264.798 C 219.778 265.569,219.181 266.605,219.026 267.100 C 218.872 267.595,218.578 268.000,218.373 268.000 C 218.168 268.000,218.000 268.187,218.000 268.416 C 218.000 268.890,216.355 271.331,215.900 271.533 C 215.735 271.607,215.600 271.877,215.600 272.135 C 215.600 272.392,214.970 273.489,214.200 274.572 C 213.430 275.655,212.800 276.789,212.800 277.093 C 212.800 277.560,221.404 277.601,269.320 277.359 C 300.406 277.202,326.326 277.195,326.920 277.344 C 328.764 277.807,328.214 280.405,325.700 283.118 C 325.425 283.414,325.200 283.832,325.200 284.045 C 325.200 284.259,325.012 284.651,324.781 284.917 C 323.983 285.837,321.600 289.671,321.600 290.035 C 321.600 290.236,321.416 290.400,321.190 290.400 C 320.965 290.400,320.597 290.805,320.373 291.300 C 319.788 292.592,315.920 298.714,313.559 302.084 C 313.142 302.680,312.800 303.355,312.800 303.584 C 312.800 303.813,312.611 304.000,312.379 304.000 C 312.148 304.000,311.770 304.540,311.540 305.200 C 311.310 305.860,310.959 306.400,310.761 306.400 C 310.562 306.400,310.400 306.676,310.400 307.013 C 310.400 307.349,310.130 307.729,309.800 307.855 C 309.470 307.982,309.200 308.309,309.200 308.583 C 309.200 308.856,308.705 309.791,308.100 310.661 C 307.495 311.531,306.770 312.593,306.489 313.021 C 303.405 317.717,303.560 317.557,301.851 317.800 C 298.739 318.241,140.871 317.831,140.421 317.381 C 139.959 316.919,141.047 313.600,141.661 313.600 C 141.847 313.600,142.000 313.435,142.000 313.234 C 142.000 313.032,142.900 311.521,144.000 309.877 C 145.100 308.232,146.000 306.687,146.000 306.443 C 146.000 306.199,146.184 306.000,146.410 306.000 C 146.635 306.000,147.005 305.595,147.231 305.100 C 148.118 303.156,148.861 302.000,149.222 302.000 C 149.430 302.000,149.600 301.743,149.600 301.429 C 149.600 301.114,149.825 300.612,150.100 300.312 C 150.798 299.551,151.527 298.376,152.026 297.208 C 152.259 296.663,152.574 296.123,152.725 296.008 C 153.142 295.692,154.800 293.268,154.800 292.974 C 154.800 292.832,155.310 292.059,155.934 291.258 C 156.557 290.456,157.181 289.485,157.321 289.100 C 157.461 288.715,157.761 288.400,157.987 288.400 C 158.214 288.400,158.400 288.111,158.400 287.758 C 158.400 287.404,158.940 286.433,159.600 285.600 C 160.260 284.767,160.800 283.922,160.800 283.724 C 160.800 283.525,161.074 283.011,161.409 282.581 C 161.744 282.152,163.139 280.073,164.509 277.961 C 165.879 275.850,167.225 273.780,167.501 273.361 C 167.776 272.943,168.177 272.195,168.391 271.700 C 168.605 271.205,168.965 270.800,169.190 270.800 C 169.416 270.800,169.600 270.601,169.600 270.359 C 169.600 270.116,170.977 267.821,172.659 265.259 C 174.342 262.696,176.187 259.880,176.759 259.000 C 177.332 258.120,177.935 257.340,178.100 257.267 C 178.265 257.193,178.402 256.923,178.405 256.667 C 178.410 256.256,181.764 250.916,182.737 249.769 C 182.938 249.532,183.226 248.947,183.378 248.469 C 183.530 247.991,183.826 247.600,184.037 247.600 C 184.247 247.600,184.577 247.195,184.770 246.700 C 184.962 246.205,185.588 245.117,186.160 244.282 C 186.732 243.447,187.200 242.601,187.200 242.402 C 187.200 242.203,187.439 241.896,187.730 241.720 C 188.022 241.544,188.384 241.130,188.535 240.800 C 188.685 240.470,189.165 239.660,189.600 239.000 C 190.035 238.340,190.602 237.395,190.860 236.900 C 191.118 236.405,191.480 236.000,191.664 236.000 C 191.849 236.000,192.000 235.791,192.000 235.536 C 192.000 235.280,192.900 233.745,194.000 232.124 C 195.100 230.503,196.000 229.002,196.000 228.788 C 196.000 228.575,196.158 228.400,196.351 228.400 C 196.545 228.400,196.927 227.860,197.200 227.200 C 197.473 226.540,197.834 226.000,198.002 226.000 C 198.170 226.000,198.416 225.685,198.549 225.300 C 198.682 224.915,199.108 224.121,199.495 223.535 C 199.883 222.950,200.728 221.600,201.374 220.535 C 202.019 219.471,202.784 218.362,203.074 218.071 C 203.363 217.781,203.600 217.295,203.600 216.991 C 203.600 216.688,203.839 216.296,204.130 216.120 C 204.422 215.944,204.781 215.530,204.928 215.200 C 205.302 214.360,206.027 213.235,207.247 211.602 C 207.822 210.831,208.419 209.795,208.574 209.300 C 208.728 208.805,209.022 208.400,209.227 208.400 C 209.432 208.400,209.600 208.213,209.600 207.984 C 209.600 207.510,211.245 205.069,211.700 204.867 C 211.865 204.793,212.000 204.504,212.000 204.224 C 212.000 203.944,212.585 202.919,213.300 201.946 C 215.055 199.559,215.580 198.727,215.858 197.900 C 215.988 197.515,216.257 197.200,216.457 197.200 C 216.656 197.200,216.998 196.795,217.216 196.300 C 217.434 195.805,217.967 194.860,218.402 194.200 C 218.836 193.540,219.402 192.595,219.660 192.100 C 219.918 191.605,220.280 191.200,220.464 191.200 C 220.649 191.200,220.800 191.016,220.800 190.791 C 220.800 190.566,221.700 189.022,222.800 187.361 C 223.900 185.700,224.800 184.174,224.800 183.971 C 224.800 183.767,224.962 183.600,225.161 183.600 C 225.359 183.600,225.710 183.060,225.940 182.400 C 226.170 181.740,226.548 181.200,226.779 181.200 C 227.011 181.200,227.200 180.924,227.200 180.587 C 227.200 180.251,227.470 179.871,227.800 179.745 C 228.130 179.618,228.400 179.256,228.400 178.941 C 228.400 178.463,229.687 176.313,230.400 175.600 C 230.510 175.490,230.819 175.040,231.087 174.600 C 231.355 174.160,232.165 172.840,232.887 171.666 C 233.609 170.492,234.380 169.228,234.600 168.857 C 234.820 168.487,235.450 167.561,236.000 166.800 C 237.194 165.148,237.824 164.112,238.373 162.900 C 238.597 162.405,238.945 162.000,239.147 162.000 C 239.348 162.000,239.626 161.550,239.764 161.000 C 239.902 160.450,240.192 160.000,240.408 160.000 C 240.623 160.000,240.800 159.818,240.800 159.596 C 240.800 159.374,241.396 158.339,242.125 157.296 C 242.853 156.253,243.572 155.130,243.722 154.800 C 244.038 154.105,244.908 152.692,245.200 152.400 C 245.812 151.788,247.200 149.570,247.200 149.204 C 247.200 148.968,247.470 148.671,247.800 148.545 C 248.130 148.418,248.400 148.045,248.400 147.715 C 248.400 147.385,248.909 146.459,249.530 145.658 C 250.152 144.856,251.356 143.030,252.205 141.600 C 253.054 140.170,253.986 138.856,254.275 138.680 C 254.564 138.504,254.800 138.186,254.800 137.972 C 254.800 137.759,255.291 136.823,255.892 135.892 C 257.419 133.526,257.925 132.692,258.254 132.000 C 258.411 131.670,258.778 131.256,259.070 131.080 C 259.361 130.904,259.600 130.598,259.600 130.400 C 259.600 130.202,260.109 129.266,260.730 128.320 C 261.352 127.374,262.627 125.430,263.564 124.000 C 264.500 122.570,265.567 121.278,265.933 121.128 C 267.003 120.692,310.354 120.747,311.174 121.186 " stroke="none" fill="#0474ec" fill-rule="evenodd"></path><path id="path3" d="M94.353 85.700 C 93.169 87.515,92.128 89.180,92.040 89.400 C 91.952 89.620,91.772 89.890,91.640 90.000 C 91.203 90.364,89.600 92.762,89.600 93.052 C 89.600 93.209,89.301 93.667,88.936 94.071 C 88.570 94.475,88.376 94.909,88.504 95.037 C 88.632 95.165,89.056 94.759,89.446 94.135 C 89.836 93.511,91.654 90.705,93.485 87.899 L 96.814 82.798 177.902 82.899 C 269.335 83.013,260.309 82.640,258.126 86.210 C 257.507 87.223,256.818 88.355,256.595 88.726 C 256.372 89.097,255.306 90.750,254.226 92.400 C 253.146 94.050,251.511 96.570,250.593 98.000 C 249.675 99.430,248.221 101.650,247.362 102.933 C 246.503 104.216,245.627 105.566,245.416 105.933 C 244.842 106.931,242.298 110.926,241.865 111.509 C 241.590 111.879,241.656 111.953,242.104 111.781 C 242.443 111.651,242.826 111.242,242.954 110.872 C 243.082 110.503,243.909 109.120,244.791 107.800 C 245.673 106.480,246.518 105.130,246.668 104.800 C 246.819 104.470,247.045 104.110,247.171 104.000 C 247.571 103.651,249.200 101.242,249.200 101.000 C 249.200 100.758,250.829 98.349,251.229 98.000 C 251.355 97.890,251.582 97.530,251.734 97.200 C 251.885 96.870,252.322 96.121,252.704 95.535 C 253.087 94.950,253.928 93.600,254.574 92.535 C 255.219 91.471,255.984 90.362,256.274 90.071 C 256.563 89.781,256.800 89.301,256.800 89.005 C 256.800 88.709,256.935 88.407,257.100 88.333 C 258.052 87.910,260.176 83.835,259.866 83.027 C 259.648 82.461,251.754 82.400,178.066 82.400 L 96.506 82.400 94.353 85.700 M86.413 98.028 C 84.682 100.633,84.305 101.522,85.593 99.961 C 86.732 98.579,86.923 98.298,87.681 96.876 C 88.766 94.845,88.165 95.391,86.413 98.028 M83.735 102.265 C 83.334 102.889,82.861 103.580,82.684 103.800 C 81.915 104.755,79.600 108.498,79.600 108.786 C 79.600 108.960,79.330 109.326,79.000 109.600 C 78.670 109.874,78.400 110.282,78.400 110.506 C 78.400 110.731,79.030 110.090,79.800 109.082 C 80.570 108.073,81.200 107.127,81.200 106.980 C 81.200 106.832,82.019 105.540,83.020 104.109 C 84.020 102.677,84.755 101.421,84.652 101.318 C 84.548 101.215,84.136 101.641,83.735 102.265 M77.173 112.100 C 76.558 113.459,75.745 114.815,75.246 115.314 C 74.720 115.840,74.645 116.543,75.148 116.232 C 75.769 115.848,78.378 111.200,77.973 111.200 C 77.757 111.200,77.397 111.605,77.173 112.100 M240.143 114.302 C 237.144 118.828,234.188 123.431,234.042 123.800 C 233.955 124.020,233.348 124.883,232.694 125.718 C 232.039 126.554,231.601 127.334,231.720 127.453 C 231.839 127.572,232.261 127.159,232.659 126.535 C 233.056 125.911,233.485 125.310,233.612 125.200 C 233.739 125.090,234.273 124.280,234.800 123.400 C 235.327 122.520,235.872 121.710,236.012 121.600 C 236.152 121.490,237.026 120.140,237.954 118.600 C 238.882 117.060,239.857 115.444,240.121 115.009 C 240.384 114.574,240.850 114.019,241.155 113.774 C 241.460 113.530,241.640 113.122,241.555 112.868 C 241.470 112.613,240.834 113.259,240.143 114.302 M73.235 118.479 C 71.643 120.643,71.583 122.280,73.081 122.656 C 73.675 122.805,99.595 122.799,130.681 122.643 L 187.200 122.358 187.214 123.279 L 187.228 124.200 187.800 123.200 C 188.114 122.650,188.378 122.061,188.386 121.890 C 188.394 121.720,178.005 121.678,165.300 121.797 C 152.595 121.916,126.650 122.055,107.644 122.107 C 67.833 122.214,70.937 122.563,73.803 118.300 C 75.169 116.268,74.767 116.395,73.235 118.479 M265.933 121.128 C 265.567 121.278,264.500 122.570,263.564 124.000 C 262.627 125.430,261.352 127.374,260.730 128.320 C 260.109 129.266,259.600 130.202,259.600 130.400 C 259.600 130.598,259.361 130.904,259.070 131.080 C 258.778 131.256,258.411 131.670,258.254 132.000 C 257.924 132.693,257.423 133.519,255.863 135.938 C 255.247 136.894,254.800 137.732,254.871 137.801 C 254.942 137.870,255.560 137.088,256.244 136.063 C 259.602 131.033,262.400 126.733,262.400 126.602 C 262.400 126.087,265.680 121.655,266.212 121.451 C 267.168 121.084,310.511 121.156,311.093 121.525 C 311.635 121.870,310.881 123.544,308.753 126.720 C 308.119 127.666,307.600 128.540,307.600 128.662 C 307.600 128.785,307.105 129.541,306.500 130.342 C 304.862 132.513,303.665 134.751,304.510 134.064 C 304.872 133.769,305.288 133.152,305.434 132.693 C 305.580 132.234,306.129 131.395,306.654 130.829 C 307.179 130.263,307.721 129.440,307.858 129.000 C 307.996 128.560,308.219 128.110,308.354 128.000 C 308.849 127.597,310.400 125.222,310.400 124.865 C 310.400 124.663,310.650 124.290,310.956 124.037 C 311.871 123.277,311.997 121.627,311.174 121.186 C 310.354 120.747,267.003 120.692,265.933 121.128 M183.404 129.500 C 181.812 131.778,179.600 135.246,179.600 135.463 C 179.600 135.885,180.709 134.506,181.743 132.800 C 182.343 131.810,183.279 130.325,183.823 129.500 C 184.367 128.675,184.731 128.000,184.632 128.000 C 184.533 128.000,183.980 128.675,183.404 129.500 M230.988 128.540 C 230.123 129.506,228.023 133.200,228.339 133.200 C 228.522 133.200,228.888 132.795,229.152 132.300 C 230.025 130.663,230.625 129.693,231.173 129.033 C 231.789 128.291,231.619 127.837,230.988 128.540 M225.740 136.700 C 222.859 141.059,221.558 143.200,221.787 143.200 C 221.896 143.200,223.063 141.535,224.381 139.500 C 225.700 137.465,227.053 135.448,227.389 135.019 C 227.931 134.325,228.189 133.600,227.894 133.600 C 227.835 133.600,226.866 134.995,225.740 136.700 M302.893 135.900 C 301.688 137.641,301.427 138.154,301.898 137.863 C 302.343 137.588,304.087 134.800,303.814 134.800 C 303.726 134.800,303.312 135.295,302.893 135.900 M178.538 136.617 C 178.178 137.555,178.567 137.666,179.119 136.782 C 179.428 136.287,179.454 136.000,179.191 136.000 C 178.962 136.000,178.668 136.278,178.538 136.617 M177.700 138.265 C 177.425 138.376,177.200 138.626,177.200 138.821 C 177.200 139.017,176.321 140.487,175.247 142.088 C 173.533 144.642,172.411 146.377,170.515 149.400 C 170.239 149.840,169.899 150.515,169.760 150.900 C 169.621 151.285,169.343 151.600,169.143 151.600 C 168.944 151.600,168.597 152.005,168.373 152.500 C 167.804 153.758,167.064 155.000,166.427 155.767 C 166.130 156.126,165.989 156.522,166.114 156.647 C 166.240 156.773,166.821 156.094,167.406 155.138 C 167.992 154.182,168.815 152.912,169.235 152.316 C 169.656 151.720,170.000 151.146,170.000 151.041 C 170.000 150.936,170.810 149.667,171.800 148.221 C 172.790 146.775,173.600 145.506,173.600 145.400 C 173.600 145.294,174.366 144.081,175.301 142.704 C 177.459 139.528,178.448 137.991,178.309 138.032 C 178.249 138.049,177.975 138.154,177.700 138.265 M254.176 138.706 C 253.942 138.868,253.056 140.170,252.206 141.600 C 251.356 143.030,250.152 144.856,249.530 145.658 C 248.909 146.459,248.400 147.351,248.400 147.638 C 248.400 147.926,249.525 146.460,250.900 144.380 C 255.189 137.892,255.081 138.079,254.176 138.706 M300.142 140.062 C 299.528 141.018,298.683 142.430,298.263 143.200 C 297.843 143.970,297.378 144.690,297.229 144.800 C 296.460 145.367,295.165 147.988,295.767 147.757 C 296.115 147.624,296.400 147.308,296.400 147.056 C 296.400 146.804,297.030 145.711,297.800 144.628 C 298.570 143.545,299.200 142.440,299.200 142.172 C 299.200 141.905,299.470 141.582,299.800 141.455 C 300.130 141.329,300.400 141.009,300.400 140.744 C 300.400 140.479,300.699 139.933,301.064 139.529 C 301.430 139.125,301.623 138.689,301.493 138.560 C 301.364 138.430,300.756 139.106,300.142 140.062 M220.556 144.665 C 220.167 145.289,219.680 146.025,219.475 146.300 C 219.231 146.627,219.262 146.800,219.564 146.800 C 219.817 146.800,220.137 146.485,220.273 146.100 C 220.410 145.715,220.793 145.084,221.125 144.698 C 221.457 144.311,221.624 143.891,221.496 143.763 C 221.368 143.635,220.945 144.041,220.556 144.665 M216.584 150.892 C 215.273 152.904,213.610 155.441,212.889 156.531 C 212.168 157.621,211.659 158.592,211.757 158.691 C 211.856 158.789,212.261 158.359,212.659 157.735 C 213.056 157.111,213.489 156.510,213.621 156.400 C 213.753 156.290,214.207 155.573,214.630 154.808 C 215.054 154.042,215.985 152.559,216.700 151.512 C 217.415 150.465,218.000 149.426,218.000 149.204 C 218.000 148.982,218.161 148.800,218.357 148.800 C 218.554 148.800,218.828 148.504,218.967 148.143 C 219.553 146.615,218.824 147.456,216.584 150.892 M247.314 149.100 C 246.985 149.984,245.498 152.157,245.100 152.333 C 244.935 152.407,244.800 152.662,244.800 152.902 C 244.800 153.141,244.501 153.667,244.136 154.071 C 243.770 154.475,243.570 154.904,243.691 155.024 C 243.811 155.145,244.771 153.928,245.823 152.322 C 246.875 150.715,247.908 149.175,248.117 148.900 C 248.369 148.569,248.342 148.400,248.036 148.400 C 247.783 148.400,247.458 148.715,247.314 149.100 M294.156 149.465 C 293.767 150.089,293.280 150.825,293.075 151.100 C 292.832 151.426,292.861 151.600,293.160 151.600 C 293.411 151.600,293.835 151.105,294.100 150.500 C 294.366 149.895,294.762 149.275,294.980 149.122 C 295.198 148.969,295.261 148.728,295.120 148.587 C 294.979 148.446,294.545 148.841,294.156 149.465 M292.000 152.600 C 291.717 152.941,291.576 153.309,291.686 153.419 C 291.796 153.529,292.117 153.341,292.400 153.000 C 292.683 152.659,292.824 152.291,292.714 152.181 C 292.604 152.071,292.283 152.259,292.000 152.600 M289.775 156.267 C 288.955 157.550,287.469 159.860,286.473 161.400 C 284.103 165.065,281.739 168.739,279.523 172.200 C 278.537 173.740,276.744 176.530,275.539 178.400 C 272.782 182.679,272.711 182.800,272.951 182.800 C 273.233 182.800,278.362 175.065,279.051 173.600 C 279.206 173.270,279.843 172.344,280.466 171.542 C 281.090 170.741,281.600 169.978,281.600 169.846 C 281.600 169.715,282.410 168.425,283.400 166.979 C 284.390 165.533,285.200 164.194,285.200 164.003 C 285.200 163.813,285.425 163.414,285.700 163.118 C 286.471 162.286,288.000 160.063,288.000 159.774 C 288.000 159.632,288.540 158.833,289.200 158.000 C 289.860 157.167,290.400 156.345,290.400 156.174 C 290.400 156.003,290.699 155.533,291.064 155.129 C 291.430 154.725,291.625 154.291,291.498 154.164 C 291.371 154.037,290.596 154.984,289.775 156.267 M242.044 157.397 C 241.360 158.411,240.800 159.334,240.800 159.449 C 240.800 159.563,240.530 159.927,240.200 160.257 C 239.870 160.587,239.600 161.054,239.600 161.295 C 239.600 161.849,239.545 161.917,241.765 158.650 C 242.793 157.138,243.556 155.822,243.461 155.727 C 243.365 155.632,242.728 156.384,242.044 157.397 M164.881 158.397 C 164.507 159.056,164.065 159.596,163.900 159.597 C 163.735 159.599,163.600 159.848,163.600 160.151 C 163.600 160.454,163.342 160.916,163.026 161.178 C 162.711 161.440,162.073 162.383,161.608 163.274 C 161.144 164.164,160.503 165.155,160.182 165.475 C 159.862 165.795,159.600 166.314,159.600 166.629 C 159.600 166.943,159.416 167.200,159.190 167.200 C 158.965 167.200,158.597 167.605,158.373 168.100 C 157.825 169.310,157.333 170.116,155.100 173.461 C 154.055 175.027,153.200 176.426,153.200 176.571 C 153.200 176.716,152.748 177.322,152.196 177.917 C 151.643 178.513,151.079 179.360,150.942 179.800 C 150.804 180.240,150.581 180.690,150.446 180.800 C 149.866 181.272,148.400 183.609,148.400 184.063 C 148.400 184.336,149.570 182.784,151.000 180.615 C 152.430 178.446,153.600 176.603,153.600 176.520 C 153.600 176.436,153.939 175.880,154.353 175.284 C 155.813 173.182,160.000 166.746,160.000 166.603 C 160.000 166.524,160.871 165.141,161.936 163.529 C 164.978 158.926,166.028 157.200,165.786 157.200 C 165.663 157.200,165.256 157.739,164.881 158.397 M209.800 161.315 C 209.580 161.582,208.704 162.942,207.853 164.337 C 205.793 167.714,203.735 170.888,203.219 171.483 C 202.988 171.749,202.800 172.095,202.800 172.252 C 202.800 172.409,202.501 172.867,202.136 173.271 C 201.770 173.675,201.570 174.104,201.691 174.224 C 201.908 174.441,205.600 169.146,205.600 168.618 C 205.600 168.467,205.825 168.092,206.100 167.785 C 207.272 166.478,207.633 165.971,208.005 165.111 C 208.479 164.013,209.222 162.828,209.900 162.088 C 210.175 161.788,210.400 161.376,210.400 161.171 C 210.400 160.694,210.291 160.720,209.800 161.315 M238.391 162.900 C 237.890 164.060,237.272 165.037,235.852 166.917 C 235.220 167.753,234.796 168.529,234.908 168.641 C 235.100 168.834,236.499 166.918,238.661 163.500 C 239.183 162.675,239.423 162.000,239.195 162.000 C 238.967 162.000,238.605 162.405,238.391 162.900 M233.394 170.862 C 232.808 171.818,231.985 173.088,231.565 173.684 C 231.144 174.280,230.800 174.940,230.800 175.150 C 230.800 175.361,230.665 175.593,230.500 175.667 C 229.997 175.890,228.400 178.334,228.400 178.880 C 228.400 179.163,229.154 178.225,230.075 176.797 C 230.997 175.368,232.443 173.142,233.291 171.849 C 234.138 170.555,234.747 169.413,234.644 169.311 C 234.542 169.208,233.979 169.906,233.394 170.862 M198.842 178.402 C 197.499 180.410,196.400 182.199,196.400 182.377 C 196.400 182.556,196.130 182.926,195.800 183.200 C 195.470 183.474,195.206 183.901,195.213 184.149 C 195.232 184.794,196.800 182.825,196.800 182.156 C 196.800 181.850,196.984 181.600,197.210 181.600 C 197.435 181.600,197.795 181.195,198.009 180.700 C 198.591 179.355,199.339 178.239,199.900 177.880 C 200.175 177.704,200.400 177.358,200.400 177.112 C 200.400 176.865,200.699 176.333,201.064 175.929 C 201.430 175.525,201.628 175.095,201.506 174.973 C 201.384 174.851,200.185 176.394,198.842 178.402 M227.318 180.300 C 227.176 180.685,226.822 181.144,226.530 181.320 C 226.239 181.496,226.000 181.888,226.000 182.191 C 226.000 182.495,225.709 183.034,225.352 183.390 C 224.996 183.747,224.795 184.128,224.904 184.238 C 225.014 184.348,225.847 183.349,226.755 182.019 C 227.663 180.688,228.219 179.600,227.991 179.600 C 227.762 179.600,227.459 179.915,227.318 180.300 M271.880 184.065 C 271.558 184.579,269.960 187.070,268.327 189.600 C 266.694 192.130,264.927 194.920,264.400 195.800 C 263.873 196.680,263.334 197.490,263.201 197.600 C 262.530 198.156,260.506 201.934,260.976 201.754 C 261.276 201.639,261.627 201.242,261.756 200.872 C 261.885 200.503,262.308 199.729,262.695 199.154 C 263.083 198.579,263.931 197.229,264.581 196.154 C 265.230 195.079,265.864 194.110,265.990 194.000 C 266.396 193.645,268.548 190.270,269.051 189.200 C 269.206 188.870,269.843 187.944,270.466 187.142 C 271.090 186.341,271.600 185.545,271.600 185.374 C 271.600 185.203,271.899 184.733,272.264 184.329 C 272.630 183.925,272.824 183.491,272.696 183.363 C 272.568 183.235,272.201 183.551,271.880 184.065 M193.572 186.700 C 191.066 190.407,190.395 191.600,190.816 191.600 C 191.050 191.600,191.430 191.060,191.660 190.400 C 191.890 189.740,192.241 189.200,192.439 189.200 C 192.638 189.200,192.800 188.939,192.800 188.620 C 192.800 188.301,193.025 187.896,193.300 187.720 C 193.787 187.408,195.314 184.800,195.010 184.800 C 194.926 184.800,194.279 185.655,193.572 186.700 M222.638 187.584 C 221.627 189.146,220.800 190.584,220.800 190.779 C 220.800 190.974,220.665 191.193,220.500 191.267 C 220.116 191.438,218.400 193.877,218.400 194.252 C 218.400 194.409,218.101 194.867,217.736 195.271 C 217.370 195.675,217.176 196.109,217.304 196.237 C 217.432 196.365,217.798 196.049,218.119 195.535 C 219.481 193.349,222.606 188.469,223.678 186.852 C 224.316 185.891,224.756 185.023,224.657 184.923 C 224.557 184.824,223.649 186.021,222.638 187.584 M145.856 187.762 C 145.275 188.524,144.800 189.326,144.800 189.545 C 144.800 189.764,144.509 190.234,144.152 190.590 C 143.796 190.947,143.608 191.341,143.733 191.467 C 143.859 191.593,144.466 190.842,145.081 189.799 C 145.696 188.757,146.446 187.647,146.748 187.333 C 147.049 187.019,147.209 186.676,147.103 186.570 C 146.998 186.465,146.436 187.001,145.856 187.762 M142.629 192.629 C 142.283 192.974,142.000 193.426,142.000 193.632 C 142.000 193.838,141.460 194.752,140.800 195.663 C 139.525 197.423,139.096 198.770,140.325 197.154 C 141.316 195.851,143.632 192.000,143.425 192.000 C 143.333 192.000,142.974 192.283,142.629 192.629 M189.777 192.541 C 189.422 192.928,188.044 195.126,185.479 199.398 C 185.216 199.838,184.483 200.881,183.852 201.717 C 183.220 202.553,182.794 203.327,182.904 203.437 C 183.177 203.710,185.600 200.371,185.600 199.721 C 185.600 199.435,185.751 199.200,185.936 199.200 C 186.120 199.200,186.482 198.795,186.740 198.300 C 186.998 197.805,187.565 196.860,188.000 196.200 C 188.435 195.540,188.911 194.730,189.056 194.400 C 189.202 194.070,189.593 193.484,189.925 193.098 C 190.591 192.322,190.453 191.805,189.777 192.541 M216.500 197.065 C 216.225 197.176,216.000 197.462,216.000 197.702 C 216.000 197.941,215.701 198.467,215.336 198.871 C 214.970 199.275,214.764 199.697,214.877 199.811 C 214.990 199.924,215.562 199.293,216.147 198.408 C 216.732 197.524,217.164 196.814,217.106 196.832 C 217.048 196.849,216.775 196.954,216.500 197.065 M137.600 200.600 C 137.317 200.941,137.176 201.309,137.286 201.419 C 137.396 201.529,137.717 201.341,138.000 201.000 C 138.283 200.659,138.424 200.291,138.314 200.181 C 138.204 200.071,137.883 200.259,137.600 200.600 M213.248 202.060 C 212.562 202.994,212.000 203.977,212.000 204.245 C 212.000 204.514,211.865 204.793,211.700 204.867 C 211.245 205.069,209.600 207.510,209.600 207.984 C 209.600 208.213,209.439 208.400,209.243 208.400 C 208.866 208.400,208.276 209.609,208.529 209.862 C 208.690 210.024,212.400 204.562,212.400 204.162 C 212.400 204.026,212.962 203.206,213.648 202.339 C 214.335 201.472,214.806 200.673,214.696 200.563 C 214.586 200.453,213.935 201.127,213.248 202.060 M136.031 202.900 C 135.839 203.395,134.853 205.029,133.841 206.531 C 132.828 208.034,132.000 209.414,132.000 209.598 C 132.000 209.782,131.865 209.993,131.700 210.067 C 131.316 210.238,129.600 212.677,129.600 213.052 C 129.600 213.209,129.301 213.667,128.936 214.071 C 128.570 214.475,128.376 214.909,128.504 215.037 C 128.632 215.165,129.054 214.759,129.444 214.135 C 129.833 213.511,131.263 211.290,132.622 209.200 C 136.645 203.011,137.232 202.000,136.795 202.000 C 136.567 202.000,136.223 202.405,136.031 202.900 M258.987 204.062 C 258.397 205.018,257.510 206.430,257.014 207.200 C 256.519 207.970,255.247 209.950,254.188 211.600 C 253.130 213.250,252.089 214.829,251.875 215.109 C 251.591 215.482,251.652 215.555,252.104 215.381 C 252.443 215.251,252.826 214.842,252.954 214.472 C 253.082 214.103,253.909 212.720,254.791 211.400 C 255.673 210.080,256.518 208.730,256.668 208.400 C 256.819 208.070,257.045 207.710,257.171 207.600 C 257.616 207.212,259.200 204.829,259.200 204.548 C 259.200 204.391,259.499 203.933,259.864 203.529 C 260.230 203.125,260.423 202.689,260.293 202.560 C 260.164 202.430,259.576 203.106,258.987 204.062 M179.000 209.332 C 177.680 211.346,176.527 213.169,176.438 213.384 C 176.348 213.599,175.538 214.860,174.636 216.187 C 171.660 220.570,171.530 220.802,172.199 220.545 C 172.529 220.418,172.800 220.169,172.800 219.992 C 172.800 219.658,175.112 215.990,176.187 214.619 C 176.524 214.189,176.800 213.604,176.800 213.319 C 176.800 213.033,176.951 212.800,177.136 212.800 C 177.320 212.800,177.688 212.395,177.952 211.900 C 178.519 210.837,179.026 210.005,180.537 207.662 C 181.153 206.706,181.600 205.868,181.529 205.798 C 181.458 205.729,180.320 207.319,179.000 209.332 M207.056 211.762 C 206.475 212.524,206.000 213.279,206.000 213.442 C 206.000 213.604,205.701 214.067,205.336 214.471 C 204.970 214.875,204.782 215.315,204.917 215.450 C 205.052 215.585,205.666 214.842,206.281 213.799 C 206.896 212.757,207.646 211.647,207.948 211.333 C 208.249 211.019,208.409 210.676,208.303 210.570 C 208.198 210.465,207.636 211.001,207.056 211.762 M126.413 218.028 C 124.682 220.633,124.305 221.522,125.593 219.961 C 126.732 218.579,126.923 218.298,127.681 216.876 C 128.766 214.845,128.165 215.391,126.413 218.028 M203.596 217.011 C 203.385 217.566,203.021 218.241,202.787 218.511 C 202.042 219.370,199.600 223.258,199.600 223.586 C 199.600 223.760,199.330 224.126,199.000 224.400 C 198.670 224.674,198.400 225.069,198.400 225.278 C 198.400 225.947,199.405 224.674,201.146 221.800 C 202.078 220.260,203.285 218.325,203.827 217.500 C 204.368 216.675,204.625 216.000,204.396 216.000 C 204.167 216.000,203.807 216.455,203.596 217.011 M250.304 217.646 C 249.701 218.501,249.352 219.200,249.529 219.200 C 249.977 219.200,251.681 216.834,251.527 216.427 C 251.457 216.243,250.907 216.792,250.304 217.646 M247.919 221.319 C 247.340 222.244,246.469 223.630,245.983 224.400 C 245.112 225.782,245.111 225.790,245.950 225.038 C 246.418 224.619,246.800 224.049,246.800 223.771 C 246.800 223.494,246.943 223.207,247.117 223.133 C 247.548 222.952,249.332 219.998,249.131 219.798 C 249.043 219.710,248.498 220.394,247.919 221.319 M123.735 222.265 C 123.334 222.889,122.861 223.580,122.684 223.800 C 121.915 224.755,119.600 228.498,119.600 228.786 C 119.600 228.960,119.330 229.326,119.000 229.600 C 118.670 229.874,118.400 230.282,118.400 230.506 C 118.400 230.731,119.030 230.090,119.800 229.082 C 120.570 228.073,121.200 227.127,121.200 226.980 C 121.200 226.832,122.019 225.540,123.020 224.109 C 124.020 222.677,124.755 221.421,124.652 221.318 C 124.548 221.215,124.136 221.641,123.735 222.265 M170.143 223.102 C 169.452 224.146,168.085 226.260,167.105 227.800 C 162.224 235.477,161.221 237.031,160.912 237.400 C 160.727 237.620,159.988 238.790,159.269 240.000 L 157.963 242.200 159.171 240.800 C 159.835 240.030,160.383 239.246,160.389 239.058 C 160.395 238.869,160.940 238.033,161.600 237.200 C 162.260 236.367,162.800 235.522,162.800 235.324 C 162.800 235.125,163.076 234.611,163.413 234.181 C 164.550 232.730,166.800 229.133,166.800 228.765 C 166.800 228.564,166.951 228.400,167.136 228.400 C 167.320 228.400,167.682 227.995,167.940 227.500 C 168.198 227.005,168.765 226.060,169.200 225.400 C 169.635 224.740,170.117 223.930,170.271 223.600 C 170.425 223.270,170.811 222.804,171.130 222.565 C 171.449 222.326,171.640 221.922,171.555 221.668 C 171.470 221.413,170.834 222.059,170.143 223.102 M197.200 227.200 C 196.927 227.860,196.545 228.400,196.351 228.400 C 196.158 228.400,196.000 228.575,196.000 228.788 C 196.000 229.002,195.100 230.503,194.000 232.124 C 192.900 233.745,192.000 235.265,192.000 235.502 C 192.000 235.739,191.865 235.993,191.700 236.067 C 191.316 236.238,189.600 238.677,189.600 239.052 C 189.600 239.209,189.301 239.667,188.936 240.071 C 188.570 240.475,188.369 240.902,188.488 241.021 C 188.675 241.209,191.638 236.913,192.503 235.200 C 192.670 234.870,193.480 233.579,194.303 232.331 C 197.515 227.462,198.379 226.000,198.045 226.000 C 197.854 226.000,197.473 226.540,197.200 227.200 M243.589 228.100 C 242.850 229.255,242.144 230.290,242.022 230.400 C 241.900 230.510,241.530 231.085,241.200 231.677 C 240.870 232.269,240.017 233.664,239.304 234.777 C 238.591 235.890,238.157 236.800,238.339 236.800 C 238.522 236.800,238.888 236.395,239.152 235.900 C 239.897 234.502,240.426 233.658,242.935 229.866 C 244.219 227.925,245.194 226.261,245.102 226.169 C 245.010 226.076,244.329 226.946,243.589 228.100 M117.173 232.100 C 116.558 233.459,115.745 234.815,115.246 235.314 C 114.720 235.840,114.645 236.543,115.148 236.232 C 115.769 235.848,118.378 231.200,117.973 231.200 C 117.757 231.200,117.397 231.605,117.173 232.100 M112.026 240.426 C 110.691 242.421,109.600 244.143,109.600 244.255 C 109.600 244.366,109.330 244.727,109.000 245.057 C 108.670 245.387,108.400 245.859,108.400 246.106 C 108.400 246.661,110.045 244.472,111.636 241.800 C 112.291 240.700,113.273 239.125,113.819 238.300 C 114.365 237.475,114.731 236.800,114.631 236.800 C 114.532 236.800,113.360 238.432,112.026 240.426 M235.740 240.300 C 234.613 242.005,233.210 244.210,232.622 245.200 L 231.552 247.000 232.765 245.600 C 233.433 244.830,233.983 244.081,233.989 243.935 C 234.001 243.640,236.431 239.838,237.387 238.619 C 237.931 237.925,238.190 237.200,237.894 237.200 C 237.835 237.200,236.866 238.595,235.740 240.300 M187.306 242.300 C 187.159 242.685,186.534 243.746,185.919 244.658 C 185.304 245.570,184.800 246.438,184.800 246.587 C 184.800 246.964,185.786 245.928,186.120 245.200 C 186.271 244.870,186.849 243.925,187.403 243.100 C 187.958 242.275,188.223 241.600,187.993 241.600 C 187.763 241.600,187.454 241.915,187.306 242.300 M156.553 244.100 C 155.919 245.035,155.263 246.070,155.095 246.400 C 154.928 246.730,154.478 247.480,154.095 248.066 C 153.713 248.652,152.991 249.822,152.492 250.666 L 151.584 252.200 152.605 251.000 C 153.167 250.340,154.166 248.900,154.826 247.800 C 156.687 244.699,156.964 244.273,157.500 243.688 C 157.968 243.178,158.181 242.400,157.853 242.400 C 157.772 242.400,157.187 243.165,156.553 244.100 M106.746 248.515 C 106.166 249.442,105.095 251.190,104.366 252.400 C 103.637 253.610,102.932 254.690,102.799 254.800 C 102.666 254.910,102.127 255.720,101.600 256.600 C 101.073 257.480,100.533 258.290,100.400 258.400 C 99.982 258.745,98.400 261.477,98.404 261.847 C 98.407 262.150,103.479 254.778,104.584 252.865 C 105.161 251.865,107.705 247.871,108.128 247.300 C 108.331 247.025,108.341 246.807,108.149 246.815 C 107.957 246.823,107.326 247.588,106.746 248.515 M183.829 247.829 C 183.483 248.174,183.200 248.632,183.200 248.845 C 183.200 249.059,183.013 249.451,182.785 249.717 C 181.933 250.711,178.410 256.214,178.405 256.560 C 178.399 256.989,180.197 254.517,181.722 252.000 C 182.322 251.010,183.262 249.525,183.812 248.700 C 184.867 247.116,184.874 246.783,183.829 247.829 M230.556 248.265 C 230.167 248.889,229.680 249.625,229.475 249.900 C 229.231 250.227,229.262 250.400,229.564 250.400 C 229.817 250.400,230.137 250.085,230.273 249.700 C 230.410 249.315,230.793 248.684,231.125 248.298 C 231.457 247.911,231.624 247.491,231.496 247.363 C 231.368 247.235,230.945 247.641,230.556 248.265 M228.293 251.708 C 227.912 252.178,227.600 252.718,227.600 252.908 C 227.600 253.098,227.170 253.826,226.645 254.527 C 224.785 257.006,222.796 260.376,223.309 260.180 C 223.595 260.070,224.180 259.310,224.608 258.490 C 225.037 257.671,225.976 256.147,226.694 255.104 C 227.412 254.061,228.000 253.086,228.000 252.936 C 228.000 252.786,228.299 252.333,228.664 251.929 C 229.030 251.525,229.252 251.118,229.158 251.024 C 229.064 250.930,228.675 251.238,228.293 251.708 M150.100 254.229 C 149.385 255.185,148.800 256.066,148.800 256.188 C 148.800 256.309,148.114 257.442,147.276 258.705 C 146.439 259.967,144.813 262.420,143.665 264.155 C 142.516 265.890,141.657 267.391,141.756 267.490 C 141.855 267.588,142.261 267.159,142.659 266.535 C 143.056 265.911,143.487 265.310,143.615 265.200 C 143.744 265.090,144.549 263.830,145.405 262.400 C 146.261 260.970,147.465 259.098,148.080 258.240 C 148.696 257.382,149.200 256.456,149.200 256.183 C 149.200 255.909,149.470 255.582,149.800 255.455 C 150.130 255.329,150.400 255.014,150.400 254.757 C 150.400 254.499,150.695 254.073,151.055 253.809 C 151.415 253.546,151.640 253.142,151.555 252.911 C 151.470 252.681,150.815 253.274,150.100 254.229 M176.636 259.115 C 175.996 260.152,174.132 263.036,172.493 265.524 C 170.854 268.012,169.584 270.117,169.669 270.202 C 169.836 270.370,170.809 268.953,175.026 262.400 C 176.512 260.090,177.902 257.975,178.113 257.700 C 178.325 257.425,178.341 257.207,178.149 257.215 C 177.957 257.223,177.276 258.078,176.636 259.115 M97.215 263.361 C 97.014 263.890,96.658 264.440,96.425 264.585 C 96.191 264.729,96.000 265.029,96.000 265.252 C 96.000 265.755,96.784 264.954,97.714 263.500 C 98.102 262.895,98.230 262.400,97.999 262.400 C 97.769 262.400,97.416 262.833,97.215 263.361 M220.556 263.865 C 220.167 264.489,219.680 265.225,219.475 265.500 C 219.270 265.775,219.193 266.000,219.304 266.000 C 219.668 266.000,221.686 263.152,221.472 262.939 C 221.358 262.824,220.945 263.241,220.556 263.865 M94.800 267.200 C 94.527 267.860,94.145 268.400,93.951 268.400 C 93.758 268.400,93.600 268.591,93.600 268.824 C 93.600 269.511,94.260 268.904,95.146 267.401 C 95.601 266.631,95.821 266.000,95.635 266.000 C 95.449 266.000,95.073 266.540,94.800 267.200 M216.530 270.111 C 215.196 272.140,213.518 274.845,212.802 276.121 L 211.500 278.443 269.443 278.321 C 334.888 278.184,328.834 277.855,326.429 281.419 C 325.153 283.309,324.835 284.051,325.700 283.118 C 328.214 280.405,328.764 277.807,326.920 277.344 C 326.326 277.195,300.406 277.202,269.320 277.359 C 221.404 277.601,212.800 277.560,212.800 277.093 C 212.800 276.789,213.430 275.655,214.200 274.572 C 214.970 273.489,215.600 272.392,215.600 272.135 C 215.600 271.877,215.735 271.607,215.900 271.533 C 216.355 271.331,218.000 268.890,218.000 268.416 C 218.000 268.187,218.161 268.000,218.357 268.000 C 218.554 268.000,218.828 267.704,218.967 267.343 C 219.561 265.793,218.800 266.658,216.530 270.111 M92.119 271.387 C 91.504 272.423,90.685 273.642,90.300 274.096 C 89.915 274.551,89.600 275.111,89.600 275.343 C 89.600 275.838,90.270 274.989,92.205 272.044 C 92.984 270.858,93.535 269.802,93.430 269.696 C 93.324 269.591,92.734 270.352,92.119 271.387 M139.003 271.497 C 138.345 272.544,137.735 273.580,137.646 273.800 C 137.557 274.020,136.970 274.856,136.342 275.658 C 135.714 276.459,135.200 277.308,135.200 277.543 C 135.200 278.693,133.175 278.800,111.414 278.800 C 87.289 278.800,87.827 278.851,89.167 276.703 C 89.568 276.062,89.561 275.946,89.131 276.090 C 88.828 276.191,88.600 276.854,88.600 277.633 L 88.600 279.000 111.000 279.111 C 136.563 279.237,134.695 279.393,135.992 277.017 C 136.537 276.018,137.110 275.200,137.265 275.200 C 137.419 275.200,137.672 274.795,137.826 274.300 C 137.981 273.805,138.638 272.725,139.287 271.900 C 139.936 271.075,140.406 270.219,140.332 269.997 C 140.258 269.775,139.660 270.450,139.003 271.497 M168.391 271.700 C 168.177 272.195,167.776 272.943,167.501 273.361 C 167.225 273.780,165.879 275.850,164.509 277.961 C 163.139 280.073,161.744 282.152,161.409 282.581 C 161.074 283.011,160.800 283.525,160.800 283.724 C 160.800 283.922,160.260 284.767,159.600 285.600 C 158.940 286.433,158.400 287.350,158.400 287.637 C 158.400 288.078,163.018 281.412,163.759 279.902 C 163.895 279.626,164.679 278.379,165.503 277.131 C 168.791 272.147,169.575 270.800,169.186 270.800 C 168.963 270.800,168.605 271.205,168.391 271.700 M322.977 286.878 C 321.925 288.485,320.889 290.029,320.675 290.309 C 320.388 290.686,320.457 290.753,320.943 290.566 C 321.305 290.428,321.600 290.169,321.600 289.992 C 321.600 289.650,324.048 285.760,324.822 284.874 C 325.074 284.584,325.193 284.259,325.085 284.152 C 324.978 284.045,324.029 285.272,322.977 286.878 M157.321 289.100 C 157.181 289.485,156.557 290.456,155.934 291.258 C 155.310 292.059,154.800 292.832,154.800 292.974 C 154.800 293.268,153.142 295.692,152.725 296.008 C 152.574 296.123,152.259 296.663,152.026 297.208 C 151.527 298.376,150.798 299.551,150.100 300.312 C 149.825 300.612,149.600 301.067,149.600 301.323 C 149.600 301.840,149.953 301.345,154.112 294.984 C 155.700 292.555,157.319 290.080,157.709 289.484 C 158.099 288.888,158.229 288.400,157.997 288.400 C 157.765 288.400,157.461 288.715,157.321 289.100 M318.378 293.899 C 317.400 295.372,316.510 296.762,316.400 296.988 C 316.171 297.460,312.454 303.141,311.873 303.909 C 311.587 304.286,311.658 304.353,312.143 304.166 C 312.505 304.028,312.800 303.746,312.800 303.541 C 312.800 303.336,313.139 302.680,313.553 302.084 C 315.449 299.354,319.200 293.523,319.200 293.305 C 319.200 293.172,319.499 292.733,319.864 292.329 C 320.230 291.925,320.444 291.511,320.342 291.409 C 320.239 291.306,319.355 292.427,318.378 293.899 M148.415 302.961 C 148.214 303.490,147.858 304.040,147.625 304.185 C 147.391 304.329,147.200 304.627,147.200 304.847 C 147.200 305.512,147.871 304.884,148.746 303.401 C 149.201 302.631,149.395 302.000,149.177 302.000 C 148.959 302.000,148.616 302.433,148.415 302.961 M310.274 306.409 C 309.655 307.284,309.345 308.000,309.587 308.000 C 309.828 308.000,310.144 307.685,310.290 307.300 C 310.436 306.915,310.790 306.362,311.078 306.071 C 311.526 305.618,311.805 304.782,311.500 304.809 C 311.445 304.813,310.893 305.533,310.274 306.409 M146.500 305.865 C 146.225 305.976,146.000 306.251,146.000 306.477 C 146.000 306.702,145.100 308.232,144.000 309.877 C 142.900 311.521,142.000 313.032,142.000 313.234 C 142.000 313.435,141.847 313.600,141.661 313.600 C 141.047 313.600,139.959 316.919,140.421 317.381 C 140.873 317.833,298.748 318.240,301.873 317.797 C 303.274 317.598,303.681 317.319,304.385 316.080 L 305.225 314.600 304.112 315.904 L 303.000 317.207 222.087 317.204 C 150.349 317.200,141.149 317.132,140.943 316.597 C 140.728 316.036,141.365 314.880,145.621 308.100 C 146.484 306.725,147.148 305.614,147.095 305.632 C 147.043 305.649,146.775 305.754,146.500 305.865 M307.913 310.119 C 307.331 311.044,306.447 312.430,305.948 313.200 L 305.042 314.600 305.921 313.838 C 306.404 313.419,306.800 312.929,306.800 312.750 C 306.800 312.570,307.373 311.611,308.073 310.618 C 308.773 309.625,309.261 308.728,309.158 308.625 C 309.055 308.522,308.495 309.194,307.913 310.119 " stroke="none" fill="#4b97f4" fill-rule="evenodd"></path><path id="path4" d="M96.369 83.499 C 95.918 84.095,95.922 84.125,96.399 83.700 C 97.524 82.697,258.700 83.000,258.925 84.006 C 259.076 84.677,259.097 84.660,259.053 83.906 L 259.000 83.000 177.950 82.899 C 101.117 82.803,96.872 82.835,96.369 83.499 M74.800 116.800 C 74.330 117.460,74.036 118.000,74.146 118.000 C 74.256 118.000,74.730 117.460,75.200 116.800 C 75.670 116.140,75.964 115.600,75.854 115.600 C 75.744 115.600,75.270 116.140,74.800 116.800 M72.412 121.051 C 72.376 122.374,73.260 122.405,107.844 122.300 L 142.200 122.195 107.720 122.098 C 75.363 122.006,73.215 121.957,72.832 121.300 C 72.608 120.915,72.419 120.803,72.412 121.051 M277.528 121.500 C 283.759 121.562,293.839 121.562,299.928 121.500 C 306.018 121.438,300.920 121.387,288.600 121.387 C 276.280 121.387,271.298 121.438,277.528 121.500 M282.400 167.200 C 281.930 167.860,281.636 168.400,281.746 168.400 C 281.856 168.400,282.330 167.860,282.800 167.200 C 283.270 166.540,283.564 166.000,283.454 166.000 C 283.344 166.000,282.870 166.540,282.400 167.200 M163.494 232.903 L 162.788 234.200 163.594 233.256 C 164.280 232.452,164.646 231.594,164.300 231.603 C 164.245 231.604,163.882 232.189,163.494 232.903 M114.800 236.800 C 114.330 237.460,114.036 238.000,114.146 238.000 C 114.256 238.000,114.730 237.460,115.200 236.800 C 115.670 236.140,115.964 235.600,115.854 235.600 C 115.744 235.600,115.270 236.140,114.800 236.800 M106.000 250.400 C 105.530 251.060,105.236 251.600,105.346 251.600 C 105.456 251.600,105.930 251.060,106.400 250.400 C 106.870 249.740,107.164 249.200,107.054 249.200 C 106.944 249.200,106.470 249.740,106.000 250.400 M94.300 268.614 C 93.301 269.950,93.431 270.323,94.446 269.033 C 94.911 268.442,95.226 267.895,95.146 267.818 C 95.066 267.741,94.685 268.100,94.300 268.614 M100.300 278.700 C 106.515 278.762,116.685 278.762,122.900 278.700 C 129.115 278.638,124.030 278.587,111.600 278.587 C 99.170 278.587,94.085 278.638,100.300 278.700 M322.400 287.200 C 321.930 287.860,321.636 288.400,321.746 288.400 C 321.856 288.400,322.330 287.860,322.800 287.200 C 323.270 286.540,323.564 286.000,323.454 286.000 C 323.344 286.000,322.870 286.540,322.400 287.200 M140.891 316.200 C 141.068 317.379,302.740 317.678,303.631 316.501 C 304.082 315.905,304.078 315.875,303.601 316.300 C 302.580 317.210,141.772 317.012,141.205 316.100 C 140.808 315.460,140.781 315.469,140.891 316.200 " stroke="none" fill="#74acf4" fill-rule="evenodd"></path></g></svg>